<svg width="15" height="17" viewBox="0 0 15 17" fill="none" xmlns="http://www.w3.org/2000/svg">
<g clip-path="url(#clip0_5201_140408)">
<path fill-rule="evenodd" clip-rule="evenodd" d="M10.3338 8.40706H14.077C14.5844 8.40706 15 8.82267 15 9.33005V13.1138C15 13.6212 14.5844 14.0368 14.077 14.0368H10.3338C8.78598 14.0368 7.51889 12.7697 7.51889 11.2219C7.52024 9.6728 8.78463 8.40706 10.3338 8.40706ZM6.08987 3.13628L6.7025 3.71517L8.02897 2.36981C8.14637 2.25107 8.21923 2.15661 8.36362 2.30369L8.83051 2.78273C8.98435 2.93387 8.97625 3.02293 8.83186 3.16461L6.96968 4.92154C6.66472 5.22111 6.71734 5.23865 6.40833 4.93234L5.30452 3.90814C5.23974 3.83797 5.24649 3.7678 5.31801 3.69763L5.86047 3.13493C5.94009 3.04991 6.00486 3.05531 6.08987 3.13628ZM1.48165 3.96211H3.8701C3.86605 3.89464 3.86335 3.82717 3.86335 3.75835C3.8647 1.91506 5.35849 0.419922 7.20313 0.419922C9.04642 0.419922 10.5416 1.91506 10.5416 3.75835C10.5416 3.82582 10.5389 3.89329 10.5362 3.96076L11.4146 3.95941C12.312 3.95807 13.0461 4.66111 13.0461 5.55846V5.82564C13.4887 6.11846 13.7815 6.62044 13.7815 7.18719V7.77554H12.7451V7.38286C12.7451 6.96049 12.3997 6.61639 11.9787 6.61639H2.44512V5.76222C2.44512 5.64887 2.53823 5.55576 2.65158 5.55576H4.38962C4.27492 5.37764 4.17776 5.18737 4.09815 4.98766H1.7124C1.41553 4.98766 1.17398 5.23056 1.17398 5.52607V15.3268C1.17398 15.6237 1.41688 15.8652 1.7124 15.8652H12.1973C12.4942 15.8652 12.7357 15.6223 12.7357 15.3268V14.7101H13.799V15.7289H13.7963C13.7923 16.4333 13.0407 17.0014 12.2985 17.0014H1.4776C0.665257 17.0001 0 16.3348 0 15.5225V5.44376C0 4.62872 0.666607 3.96211 1.48165 3.96211ZM10.3068 4.98631C10.2271 5.18602 10.13 5.37629 10.0153 5.55441H12.1474C12.2067 5.55441 12.2648 5.55711 12.3228 5.56386V5.52473C12.3228 5.22786 12.0799 4.98631 11.7844 4.98631H10.3068ZM10.4754 9.438H13.7963V13.0058H10.4754C9.49442 13.0058 8.69153 12.2029 8.69153 11.2219C8.69153 10.2396 9.49442 9.438 10.4754 9.438ZM11.2918 10.6309C11.6278 10.6309 11.9004 10.9035 11.9004 11.2395C11.9004 11.5755 11.6278 11.848 11.2918 11.848C10.9558 11.848 10.6832 11.5755 10.6832 11.2395C10.6832 10.9035 10.9558 10.6309 11.2918 10.6309Z" fill="url(#paint0_linear_5201_140408)"/>
</g>
<defs>
<linearGradient id="paint0_linear_5201_140408" x1="7.5" y1="0.419922" x2="7.5" y2="17.0014" gradientUnits="userSpaceOnUse">
<stop stop-color="white"/>
<stop offset="0.444997" stop-color="white"/>
<stop offset="1" stop-color="white" stop-opacity="0.67"/>
</linearGradient>
<clipPath id="clip0_5201_140408">
<rect width="15" height="16.5815" fill="white" transform="translate(0 0.417969)"/>
</clipPath>
</defs>
</svg>
