<svg width="43" height="59" viewBox="0 0 43 59" fill="none" xmlns="http://www.w3.org/2000/svg">
<path d="M38.9896 18.3498C38.3764 11.9749 32.8727 9.83852 25.9178 9.22921V0.382812H20.536V8.9931C19.1229 8.9931 17.6756 9.01976 16.2397 9.05022V0.382812H10.8579L10.8541 9.22159C9.68858 9.24444 8.54213 9.26729 7.42616 9.26729V9.24063L0.00283362 9.23683V14.9872C0.00283362 14.9872 3.97921 14.911 3.91065 14.9834C6.09308 14.9834 6.80152 16.2477 7.00719 17.3406V27.4171C7.15954 27.4171 7.35379 27.4247 7.5747 27.4551H7.00719L7.00338 41.5721C6.90816 42.2575 6.50443 43.3505 4.98092 43.3543C5.04947 43.4152 1.06929 43.3543 1.06929 43.3543L-0.000976562 49.7825H7.00719C8.3098 49.7825 9.59336 49.8053 10.8503 49.813L10.8541 58.7584H16.2321V49.9082C17.7061 49.9386 19.1344 49.9501 20.5322 49.9501L20.5284 58.7584H25.9102V49.832C34.9599 49.3141 41.3015 47.033 42.0861 38.5331C42.7222 31.6898 39.5038 28.6319 34.3657 27.398C37.4927 25.8138 39.4466 23.0148 38.9896 18.3498ZM31.4558 37.4745C31.4558 44.1578 20.0104 43.4 16.3578 43.4V31.5451C20.0104 31.5527 31.4558 30.5055 31.4558 37.4745ZM28.9496 20.7528C28.9496 26.8344 19.3972 26.1223 16.3578 26.1261V15.3794C19.401 15.3794 28.9534 14.4121 28.9496 20.7528Z" fill="url(#paint0_linear_5201_138550)"/>
<defs>
<linearGradient id="paint0_linear_5201_138550" x1="21.0825" y1="0.382812" x2="21.0825" y2="58.7584" gradientUnits="userSpaceOnUse">
<stop stop-color="#61DB64"/>
<stop offset="1" stop-color="#69DD6F" stop-opacity="0.38"/>
</linearGradient>
</defs>
</svg>
