<svg width="42" height="39" viewBox="0 0 42 39" fill="none" xmlns="http://www.w3.org/2000/svg">
<path d="M25.1008 12.7892V7.7215H36.5365V0H5.39667V7.7215H16.8338V12.7851C7.53873 13.2178 0.549805 15.0833 0.549805 17.318C0.549805 19.5528 7.54209 21.4182 16.8338 21.8536V38.0863H25.1035V21.8523C34.3817 21.4182 41.3565 19.5541 41.3565 17.3214C41.3565 15.0887 34.3817 13.2246 25.1035 12.7906M25.1035 20.4773V20.4732C24.8702 20.4882 23.6714 20.5611 21.0022 20.5611C18.8683 20.5611 17.3669 20.4998 16.8378 20.4719V20.4787C8.6259 20.1101 2.49622 18.6609 2.49622 16.9269C2.49622 15.1929 8.62657 13.7458 16.8378 13.3765V19.035C17.3757 19.0724 18.914 19.1644 21.0372 19.1644C23.5874 19.1644 24.8695 19.0568 25.1048 19.035V13.3765C33.3006 13.7465 39.4162 15.197 39.4162 16.9249C39.4162 18.6527 33.2979 20.104 25.1048 20.4739" fill="url(#paint0_linear_5201_138548)"/>
<defs>
<linearGradient id="paint0_linear_5201_138548" x1="20.9532" y1="0" x2="20.9532" y2="38.0863" gradientUnits="userSpaceOnUse">
<stop stop-color="#61DB64"/>
<stop offset="1" stop-color="#69DD6F" stop-opacity="0.38"/>
</linearGradient>
</defs>
</svg>
