<svg width="21" height="22" viewBox="0 0 21 22" fill="none" xmlns="http://www.w3.org/2000/svg">
<path d="M20.2129 1.30327C19.6116 0.702019 18.6404 0.702019 18.0391 1.30327L10.5004 8.8266L2.9616 1.28785C2.36035 0.686602 1.3891 0.686602 0.787852 1.28785C0.186602 1.8891 0.186602 2.86035 0.787852 3.4616L8.3266 11.0004L0.787852 18.5391C0.186602 19.1404 0.186602 20.1116 0.787852 20.7129C1.3891 21.3141 2.36035 21.3141 2.9616 20.7129L10.5004 13.1741L18.0391 20.7129C18.6404 21.3141 19.6116 21.3141 20.2129 20.7129C20.8141 20.1116 20.8141 19.1404 20.2129 18.5391L12.6741 11.0004L20.2129 3.4616C20.7987 2.87577 20.7987 1.8891 20.2129 1.30327Z" fill="white" fill-opacity="0.5"/>
</svg>
