<svg xmlns="http://www.w3.org/2000/svg" height="800" width="1200" version="1.0" viewBox="-32.3403 -14.083625 280.2826 84.50175"><path d="M213.2245 37.0962c-1.3262 0-2.3912 1.0638-2.3912 2.3663 0 1.3012 1.065 2.3525 2.3912 2.3525 1.3138 0 2.3775-1.0513 2.3775-2.3525 0-1.3025-1.0637-2.3663-2.3775-2.3663zm0 .3625c1.1013 0 2.0025.8888 2.0025 2.0038 0 1.1-.9012 2.0025-2.0025 2.0025-1.115 0-2.015-.9025-2.015-2.0025 0-1.115.9-2.0038 2.015-2.0038zm-1.0387.7388v2.4912h.3887v-1.04h.625c.5638 0 .65.0763.6763.6138.0113.2887.0238.325.0738.4262h.3762c-.0125-.025-.0263-.025-.0263-.0762-.0112-.0363-.0238-.075-.0238-.1113l-.0125-.0887-.0138-.125-.0112-.175c-.0125-.1625-.05-.325-.075-.375l-.1262-.1638-.0738-.125c.25-.1875.3125-.3125.3125-.55 0-.4512-.3263-.7012-.9513-.7012zm.3887.3125h.675c.45 0 .65.1387.65.4137 0 .2875-.225.4125-.7.4h-.625" fill="#231f20" fill-rule="evenodd"/><path d="M8.6762 34.264h-.0537l-2.91 7.9488h5.7125zm-1.3475-3.1524h2.695l6.9525 19.1862H14.255l-2.0488-5.8737H4.93l-2.2088 5.8737H0m18.1348-12.8812h2.0475v1.6175h.0537c.8087-1.0513 2.1025-1.94 3.6113-1.94 1.4012 0 3.045.565 3.745 2.2362.9175-1.2662 2.5337-2.2362 3.9087-2.2362 2.1013 0 4.2038.9162 4.2038 4.6887v8.515h-2.21v-8.6237c0-1.59-.7-2.5325-2.2638-2.5325-1.3738 0-3.2062.7537-3.2062 2.695v8.4612h-2.21v-8.6237c0-1.59-.7013-2.5325-2.2638-2.5325-1.375 0-3.2062.7537-3.2062 2.695v8.4612h-2.21m28.6451-7.6803c-.27-2.1013-1.4563-3.8-3.8813-3.8-2.155 0-3.395 1.8337-3.53 3.8zm-7.4113 1.725c0 2.56 1.3475 4.5537 3.8813 4.5537 1.94 0 3.125-.97 3.61-2.8825l2.1837.2688c-.8362 2.8825-3.0187 4.3387-5.875 4.3387-3.935.0813-6.1712-2.9912-6.1712-6.6562 0-4.1775 1.9675-6.8713 6.1437-6.8713 4.0425 0 6.01 2.9375 6.01 6.7363v.5125m1.2933-6.9259h2.21v2.21h.0537c1.05-1.7513 2.3175-2.3713 4.5538-2.3713v2.425c-.4313-.0262-1.105-.0537-1.4825-.0537-2.1288 0-3.125 1.9662-3.125 3.4487v7.2225h-2.21m8.3351-.0002h2.21V37.4163h-2.21zm6.2785-4.5271c0 2.3987 1.8862 3.1262 3.665 3.1262 1.0238 0 2.8838-.3237 2.8838-2.21 0-3.2075-8.4075-.8087-8.4075-5.8475 0-2.6137 2.56-3.745 4.85-3.745 1.7512 0 5.525.8888 5.525 4.2025l-2.21.2963c0-1.8863-1.5363-2.775-3.2075-2.775-1.185 0-2.7488.35-2.7488 1.9137 0 2.91 8.57.835 8.57 5.9275 0 2.7225-2.7762 3.9625-5.5787 3.9625-2.8288 0-5.4163-1.2937-5.7125-4.555m18.5662 2.83c3.18 0 3.935-2.91 3.935-5.04 0-2.1275-.755-5.0387-3.935-5.0387-3.1787 0-3.9337 2.9112-3.9337 5.0387 0 2.13.755 5.04 3.9337 5.04zm0-11.8025c3.935 0 6.3063 2.8563 6.3063 6.7625 0 3.9075-2.3713 6.765-6.3063 6.765-3.9337 0-6.305-2.8575-6.305-6.765 0-3.9062 2.3713-6.7625 6.305-6.7625m18.1891 13.2033h-2.21v-1.7238h-.0525c-.8362 1.2925-2.1025 2.0475-3.7737 2.0475-2.5863 0-4.5538-1.1312-4.5538-4.7162v-8.4888h2.21v8.4888c0 1.8325 1.1313 2.6687 2.7213 2.6687 2.0475 0 3.4487-1.3212 3.4487-3.3962v-7.7613h2.21m2.0754.0004h2.2088v2.21h.055c1.05-1.7513 2.3175-2.3713 4.5537-2.3713v2.425c-.4312-.0262-1.105-.0537-1.4825-.0537-2.1287 0-3.1262 1.9662-3.1262 3.4487v7.2225h-2.2088m16.6801-8.6234c-.3237-1.7512-1.6437-2.8562-3.4225-2.8562-3.125 0-4.015 2.7212-4.015 5.0662 0 2.505 1.0513 5.0125 3.9613 5.0125 2.1825 0 3.61-1.2937 3.6912-3.4762l2.3713.1875c-.3763 3.1262-2.7488 5.0137-5.9825 5.0137-4.1488 0-6.4125-2.6962-6.4125-6.63 0-3.9875 2.2362-6.8987 6.3862-6.8987 2.695 0 5.1738 1.4012 5.7938 4.3387m10.8069 1.1856c-.27-2.1013-1.4563-3.8-3.8813-3.8-2.1562 0-3.3962 1.8337-3.53 3.8zm-7.4113 1.725c0 2.56 1.3475 4.5537 3.88 4.5537 1.94 0 3.125-.97 3.6113-2.8825l2.1825.2688c-.8363 2.8825-3.0188 4.3387-5.8738 4.3387-3.9362.0813-6.1725-2.9912-6.1725-6.6562 0-4.1775 1.9675-6.8713 6.1438-6.8713 4.0425 0 6.01 2.9375 6.01 6.7363v.5125m4.0412 3.7448h6.8187c2.0475-.0262 3.53-.97 3.53-3.1262 0-3.34-2.2637-3.5025-4.4462-3.5025h-5.9025zm0-8.8375h5.8475c2.075 0 3.9362-.5125 3.9362-3.0462 0-2.8825-2.0487-2.8825-3.9612-2.8825h-5.8225zm-2.5325-8.1387h8.9738c4.6612 0 6.09 2.695 6.09 4.985 0 1.9675-1.2125 3.5575-2.8025 4.0425v.0537c2.345.5663 3.3687 2.5063 3.3687 4.8775 0 1.455-.7013 5.2275-5.8213 5.2275h-9.8087m26.4624-7.6798c-.27-2.1013-1.455-3.8-3.88-3.8-2.1563 0-3.395 1.8337-3.5313 3.8zm-7.4113 1.725c0 2.56 1.3475 4.5537 3.8813 4.5537 1.94 0 3.1262-.97 3.61-2.8825l2.1837.2688c-.835 2.8825-3.0175 4.3387-5.875 4.3387-3.9337.0813-6.1712-2.9912-6.1712-6.6562 0-4.1775 1.9675-6.8713 6.1437-6.8713 4.0425 0 6.01 2.9375 6.01 6.7363v.5125m1.2938-6.9259h2.2087v2.21h.0538c1.0513-1.7513 2.3188-2.3713 4.555-2.3713v2.425c-.4312-.0262-1.105-.0537-1.4825-.0537-2.1287 0-3.1262 1.9662-3.1262 3.4487v7.2225h-2.2088m9.0801-6.4408c0 2.695 1.4013 4.8775 3.9613 4.8775s4.205-2.345 4.1512-4.9575c-.0813-3.5575-1.725-4.7975-4.1513-4.7975-2.2625 0-3.9612 1.5637-3.9612 4.8775zm8.1125-6.44h2.2088v12.9887c0 1.94-.3775 5.9288-5.9288 5.9288-3.1263 0-5.7938-1.3213-5.9813-4.7175h2.37c-.0536 2.0762 1.6176 2.9925 3.5313 2.9925 3.745 0 3.8-2.6413 3.8-4.4738v-1.8325h-.055c-1.2125 1.5638-2.505 2.3188-4.3925 2.3188-2.2363 0-5.8738-1.2938-5.8738-6.765 0-3.745 1.8588-6.7638 5.9013-6.7638 2.075 0 3.6113.835 4.365 2.075l.055.0275m13.1224 3.4218c-.2688-2.1013-1.455-3.8-3.88-3.8-2.1563 0-3.3963 1.8337-3.53 3.8zm-7.41 1.725c0 2.56 1.3475 4.5537 3.88 4.5537 1.94 0 3.125-.97 3.6112-2.8825l2.1825.2688c-.8362 2.8825-3.0187 4.3387-5.875 4.3387-3.935.0813-6.1712-2.9912-6.1712-6.6562 0-4.1775 1.9675-6.8713 6.1437-6.8713 4.0425 0 6.01 2.9375 6.01 6.7363v.5125m1.2926-6.9259h2.2113v1.725h.0538c.835-1.2938 2.1012-2.0475 3.7713-2.0475 2.5887 0 4.555 1.1312 4.555 4.715v8.4887h-2.21v-8.2725c0-2.21-1.1588-2.8837-2.7213-2.8837-2.0488 0-3.4487 1.32-3.4487 3.395v7.7612h-2.2113" fill="#231f20"/><path d="M47.8802.984c-3.7762 1.5788-5.8387 4.4276-5.8387 4.4276.5687-.0875 1.12-.6038 1.705-.8275 5.9825-2.3088 10.5175-1.505 15.9138 2.98 4.4262 4.0462 6.0637 10.1437 4.5812 16.0862-.7225 2.5488-1.9625 4.9763-3.7538 7.0263 5.8726-3.3413 9.145-9.5238 8.5088-16.2925-.5687-5.0813-4.2262-10.2713-8.8187-12.4525-1.665-.8613-6.0275-3.2725-12.2975-.9475" fill="#00529b"/><path d="M60.4688 30.9805c5.1287-1.485 10.0237-6.3613 11.3-11.55 1.515-5.8563-.0176-11.9013-4.5826-15.915h7.2288v27.465m-27.5419 0h12.42c-1.9737-3.8288-5.3675-6.725-9.3412-8.0875-.4763 3.4375-1.6025 6.35-3.0788 8.0875" fill="#00529b"/><path d="M50.2747 15.538c-.1175-.0525-.2362-.1013-.3537-.15.1963 1.1987.3063 2.48.3063 3.8262 0 .325-.0076.6463-.0188.9663 4.045 1.8337 7.4488 5.3662 8.8663 9.4637l.4662 1.3938c.1888-6.4763-3.3425-12.7438-9.2662-15.5" fill="#00529b"/><path d="M53.8226 7.7358c-2.6762-1.2862-5.78-1.94-9.055-1.4525 1.4413.5675 2.9413 2.3763 4.0025 5.0238 4.6288 1.4425 8.6688 5.1625 10.305 9.6562 1.2913 3.065 1.395 6.6825.7063 10.075 1.5162-2.1012 2.3075-4.5637 2.6525-7.1825.74-6.7687-2.6175-13.1062-8.6113-16.12" fill="#00529b"/></svg>