<svg width="30" height="36" viewBox="0 0 30 36" fill="none" xmlns="http://www.w3.org/2000/svg">
<path fill-rule="evenodd" clip-rule="evenodd" d="M24.48 19.391C24.4358 14.9355 28.1139 12.7974 28.2782 12.6916C26.2109 9.66759 22.9901 9.25193 21.8424 9.20519C19.1016 8.92849 16.4952 10.8198 15.1028 10.8198C13.7141 10.8198 11.5682 9.24671 9.29572 9.28833C6.30874 9.33249 3.5549 11.0256 2.01505 13.7009C-1.08824 19.0851 1.22129 27.0652 4.246 31.4311C5.72354 33.5692 7.4856 35.971 9.79969 35.8852C12.0274 35.7975 12.8704 34.4421 15.5652 34.4421C18.2592 34.4421 19.0159 35.8852 21.3742 35.8391C23.772 35.7949 25.2911 33.6595 26.7589 31.5142C28.4574 29.0331 29.1536 26.634 29.1958 26.5106C29.1425 26.4866 24.5202 24.7161 24.4734 19.3929L24.48 19.391ZM20.0505 6.31234C21.278 4.82308 22.1074 2.75578 21.8808 0.692383C20.1122 0.764473 17.9676 1.87118 16.6979 3.35851C15.5581 4.6789 14.5624 6.78321 14.8287 8.80438C16.8038 8.95835 18.8204 7.80094 20.0486 6.31493L20.0505 6.31234Z" fill="white"/>
</svg>
