<svg width="38" height="33" viewBox="0 0 38 33" fill="none" xmlns="http://www.w3.org/2000/svg">
<mask id="mask0_5568_25111" style="mask-type:alpha" maskUnits="userSpaceOnUse" x="0" y="0" width="23" height="22">
<rect x="0.0556641" y="0.441406" width="21.9485" height="21.3029" rx="3.22772" fill="#D9D9D9"/>
</mask>
<g mask="url(#mask0_5568_25111)">
<mask id="mask1_5568_25111" style="mask-type:luminance" maskUnits="userSpaceOnUse" x="-5" y="0" width="38" height="22">
<path d="M32.0592 0.441406H-4.46094V21.7443H32.0592V0.441406Z" fill="white"/>
</mask>
<g mask="url(#mask1_5568_25111)">
<path d="M13.8062 0.441406V1.1193V1.35106V1.45986L9.7519 3.48484H13.8062V4.09527V5.00818V5.92111V6.52936H9.7519L13.8062 8.5565V8.89708V9.57605V9.63481H12.5581H12.0924H11.877L6.19052 6.78942V9.63481H5.58009H4.66718H3.75643H3.14599V6.78942L-2.54043 9.63481H-3.22159H-4.46094V21.7443H32.0581V0.441406H13.8062Z" fill="#1A237B"/>
</g>
<mask id="mask2_5568_25111" style="mask-type:luminance" maskUnits="userSpaceOnUse" x="-5" y="0" width="38" height="22">
<path d="M32.0592 0.441406H-4.46094V21.7443H32.0592V0.441406Z" fill="white"/>
</mask>
<g mask="url(#mask2_5568_25111)">
<path d="M6.18945 0.441406V3.22803L11.7562 0.441406H6.18945Z" fill="#1A237B"/>
</g>
<mask id="mask3_5568_25111" style="mask-type:luminance" maskUnits="userSpaceOnUse" x="-5" y="0" width="38" height="22">
<path d="M32.0592 0.441406H-4.46094V21.7443H32.0592V0.441406Z" fill="white"/>
</mask>
<g mask="url(#mask3_5568_25111)">
<path d="M3.14476 0.441406H-2.4209L3.14476 3.22803V0.441406Z" fill="#1A237B"/>
</g>
<mask id="mask4_5568_25111" style="mask-type:luminance" maskUnits="userSpaceOnUse" x="-5" y="0" width="38" height="22">
<path d="M32.0592 0.441406H-4.46094V21.7443H32.0592V0.441406Z" fill="white"/>
</mask>
<g mask="url(#mask4_5568_25111)">
<path d="M13.7986 0.441406L7.71169 3.48484H6.34831L12.4352 0.441406H11.7573L6.19051 3.22804V0.441406H5.58008V3.53053V3.87111V4.09527H6.49302H7.85531H8.32103H8.53432H13.8062V3.48484H9.75189L13.8062 1.45986V1.35106V1.1193V0.441406H13.7986Z" fill="white"/>
</g>
<mask id="mask5_5568_25111" style="mask-type:luminance" maskUnits="userSpaceOnUse" x="-5" y="0" width="38" height="22">
<path d="M32.0592 0.441406H-4.46094V21.7443H32.0592V0.441406Z" fill="white"/>
</mask>
<g mask="url(#mask5_5568_25111)">
<path d="M3.14599 0.441406V3.22804L-2.41966 0.441406H-4.46094L1.62594 3.48484H0.264711L-4.46094 1.12473V1.46531L-0.415356 3.48484H-4.46094V4.09527H0.800064H1.48229H2.84133H3.75643V3.87111V3.63935V3.53053V0.441406H3.14599Z" fill="white"/>
</g>
<mask id="mask6_5568_25111" style="mask-type:luminance" maskUnits="userSpaceOnUse" x="-5" y="0" width="38" height="22">
<path d="M32.0592 0.441406H-4.46094V21.7443H32.0592V0.441406Z" fill="white"/>
</mask>
<g mask="url(#mask6_5568_25111)">
<path d="M7.85531 5.9209H6.49302H5.58008V6.14396V6.37682V6.48454V9.6346H6.19051V6.78921L11.877 9.6346H12.0924H12.5581H13.8062V9.57584L7.71169 6.52916H9.07183L13.8062 8.89687V8.55629L9.75189 6.52916H13.8062V5.9209H8.53432H7.85531Z" fill="white"/>
</g>
<mask id="mask7_5568_25111" style="mask-type:luminance" maskUnits="userSpaceOnUse" x="-5" y="0" width="38" height="22">
<path d="M32.0592 0.441406H-4.46094V21.7443H32.0592V0.441406Z" fill="white"/>
</mask>
<g mask="url(#mask7_5568_25111)">
<path d="M2.84133 5.9209H1.48229H1.01551H0.800064H-4.46094V6.52916H-0.415356L-4.46094 8.55194V9.57149L1.62594 6.52916H2.98607L-3.22159 9.6346H-2.54043L3.14599 6.78921V9.6346H3.75643V6.48454V6.14396V5.9209H2.84133Z" fill="white"/>
</g>
<mask id="mask8_5568_25111" style="mask-type:luminance" maskUnits="userSpaceOnUse" x="-5" y="0" width="38" height="22">
<path d="M32.0592 0.441406H-4.46094V21.7443H32.0592V0.441406Z" fill="white"/>
</mask>
<g mask="url(#mask8_5568_25111)">
<path d="M1.62594 6.5293L-4.46094 9.57163V9.63474H-3.22159L2.98607 6.5293H1.62594Z" fill="#BD0034"/>
</g>
<mask id="mask9_5568_25111" style="mask-type:luminance" maskUnits="userSpaceOnUse" x="-5" y="0" width="38" height="22">
<path d="M32.0592 0.441406H-4.46094V21.7443H32.0592V0.441406Z" fill="white"/>
</mask>
<g mask="url(#mask9_5568_25111)">
<path d="M-4.46094 1.12473L0.26471 3.48484H1.62594L-4.46094 0.441406V1.12473Z" fill="#BD0034"/>
</g>
<mask id="mask10_5568_25111" style="mask-type:luminance" maskUnits="userSpaceOnUse" x="-5" y="0" width="38" height="22">
<path d="M32.0592 0.441406H-4.46094V21.7443H32.0592V0.441406Z" fill="white"/>
</mask>
<g mask="url(#mask10_5568_25111)">
<path d="M13.7979 0.441406H12.4345L6.34766 3.48484H7.71104L13.7979 0.441406Z" fill="#BD0034"/>
</g>
<mask id="mask11_5568_25111" style="mask-type:luminance" maskUnits="userSpaceOnUse" x="-5" y="0" width="38" height="22">
<path d="M32.0592 0.441406H-4.46094V21.7443H32.0592V0.441406Z" fill="white"/>
</mask>
<g mask="url(#mask11_5568_25111)">
<path d="M7.71094 6.5293L13.8054 9.57598V8.89701L9.07107 6.5293H7.71094Z" fill="#BD0034"/>
</g>
<mask id="mask12_5568_25111" style="mask-type:luminance" maskUnits="userSpaceOnUse" x="-5" y="0" width="38" height="22">
<path d="M32.0592 0.441406H-4.46094V21.7443H32.0592V0.441406Z" fill="white"/>
</mask>
<g mask="url(#mask12_5568_25111)">
<path d="M3.75643 0.441406V3.53053V3.63935V3.87111V4.09527H2.84133H1.48229H0.800064H-4.46094V5.92111H0.800064H1.01551H1.48229H2.84133H3.75643V6.14417V6.48475V9.63481H4.66718H5.58009V6.48475V6.37703V6.14417V5.92111H6.49303H7.85532H8.53432H13.8062V5.00818V4.09527H8.53432H8.32104H7.85532H6.49303H5.58009V3.87111V3.53053V0.441406H3.75643Z" fill="#BD0034"/>
</g>
<mask id="mask13_5568_25111" style="mask-type:luminance" maskUnits="userSpaceOnUse" x="-5" y="0" width="38" height="22">
<path d="M32.0592 0.441406H-4.46094V21.7443H32.0592V0.441406Z" fill="white"/>
</mask>
<g mask="url(#mask13_5568_25111)">
<path d="M20.8887 6.65822H21.8789L22.1879 5.71484L22.4936 6.65822H23.4827L22.683 7.24254L22.9876 8.18593L22.1879 7.60161L21.3816 8.18593L21.6906 7.24254L20.8887 6.65822Z" fill="white"/>
</g>
<mask id="mask14_5568_25111" style="mask-type:luminance" maskUnits="userSpaceOnUse" x="-5" y="0" width="38" height="22">
<path d="M32.0592 0.441406H-4.46094V21.7443H32.0592V0.441406Z" fill="white"/>
</mask>
<g mask="url(#mask14_5568_25111)">
<path d="M21.3291 6.80317H21.983L22.1887 6.17969L22.39 6.80317H23.0439L22.5162 7.18835L22.7164 7.81402L22.1887 7.42773L21.6566 7.81402L21.859 7.18835L21.3291 6.80317Z" fill="#BD0034"/>
</g>
<mask id="mask15_5568_25111" style="mask-type:luminance" maskUnits="userSpaceOnUse" x="-5" y="0" width="38" height="22">
<path d="M32.0592 0.441406H-4.46094V21.7443H32.0592V0.441406Z" fill="white"/>
</mask>
<g mask="url(#mask15_5568_25111)">
<path d="M16.917 10.6546H17.9083L18.2184 9.70898L18.5241 10.6546H19.5165L18.7156 11.2356L19.0192 12.1801L18.2184 11.5968L17.4164 12.1801L17.7222 11.2356L16.917 10.6546Z" fill="white"/>
</g>
<mask id="mask16_5568_25111" style="mask-type:luminance" maskUnits="userSpaceOnUse" x="-5" y="0" width="38" height="22">
<path d="M32.0592 0.441406H-4.46094V21.7443H32.0592V0.441406Z" fill="white"/>
</mask>
<g mask="url(#mask16_5568_25111)">
<path d="M17.3584 10.7974H18.0134L18.218 10.1729L18.4193 10.7974H19.0787L18.5455 11.1826L18.749 11.8083L18.218 11.4198L17.6848 11.8083L17.8905 11.1826L17.3584 10.7974Z" fill="#BD0034"/>
</g>
<mask id="mask17_5568_25111" style="mask-type:luminance" maskUnits="userSpaceOnUse" x="-5" y="0" width="38" height="22">
<path d="M32.0592 0.441406H-4.46094V21.7443H32.0592V0.441406Z" fill="white"/>
</mask>
<g mask="url(#mask17_5568_25111)">
<path d="M20.7441 16.921H21.8453L22.1881 15.8721L22.5265 16.921H23.6298L22.7386 17.5695L23.0771 18.6185L22.1881 17.971L21.2969 18.6185L21.6353 17.5695L20.7441 16.921Z" fill="white"/>
</g>
<mask id="mask18_5568_25111" style="mask-type:luminance" maskUnits="userSpaceOnUse" x="-5" y="0" width="38" height="22">
<path d="M32.0592 0.441406H-4.46094V21.7443H32.0592V0.441406Z" fill="white"/>
</mask>
<g mask="url(#mask18_5568_25111)">
<path d="M21.2324 17.0808H21.9614L22.1878 16.3877L22.4119 17.0808H23.1399L22.5523 17.5095L22.7775 18.2048L22.1878 17.775L21.598 18.2048L21.8244 17.5095L21.2324 17.0808Z" fill="#BD0034"/>
</g>
</g>
<mask id="mask19_5568_25111" style="mask-type:alpha" maskUnits="userSpaceOnUse" x="15" y="11" width="23" height="22">
<rect x="15.5488" y="11.416" width="21.9485" height="21.3029" rx="3.22772" fill="#D9D9D9"/>
</mask>
<g mask="url(#mask19_5568_25111)">
<mask id="mask20_5568_25111" style="mask-type:luminance" maskUnits="userSpaceOnUse" x="6" y="10" width="42" height="24">
<path d="M47.1819 10.125H6.5127V33.847H47.1819V10.125Z" fill="white"/>
</mask>
<g mask="url(#mask20_5568_25111)">
<path d="M47.1819 10.125H6.5127V33.847H47.1819V10.125Z" fill="#C6001E"/>
</g>
<mask id="mask21_5568_25111" style="mask-type:luminance" maskUnits="userSpaceOnUse" x="6" y="10" width="42" height="24">
<path d="M47.1819 10.125H6.5127V33.847H47.1819V10.125Z" fill="white"/>
</mask>
<g mask="url(#mask21_5568_25111)">
<path d="M19.4365 19.7623H24.6239V14.5713H29.0734V19.7623H34.2608V24.2094H29.0734V29.398H24.6239V24.2094H19.4365V19.7623Z" fill="white"/>
</g>
</g>
</svg>
