<svg width="38" height="38" viewBox="0 0 38 38" fill="none" xmlns="http://www.w3.org/2000/svg">
<path fill-rule="evenodd" clip-rule="evenodd" d="M19.2839 0.943359C29.3887 0.943359 37.6302 9.18484 37.6302 19.2897C37.6302 29.3946 29.3887 37.636 19.2839 37.636C9.17907 37.636 0.9375 29.3946 0.9375 19.2897C0.9375 9.18484 9.17907 0.943359 19.2839 0.943359Z" fill="black"/>
<path d="M8.62504 13.7875L4.2959 10.0639L5.91698 8.17916C6.24689 7.79565 6.55568 7.52627 6.84151 7.36932C7.12918 7.21213 7.42019 7.14694 7.71529 7.1729C8.00922 7.19803 8.25715 7.29528 8.45675 7.46691C8.64116 7.62552 8.76521 7.83397 8.8279 8.09134C8.89176 8.34753 8.87181 8.63771 8.77055 8.95935C9.10856 8.72127 9.4398 8.60131 9.76495 8.5963C10.0912 8.59213 10.3803 8.6984 10.6323 8.91511C10.8315 9.08484 10.9822 9.30424 11.0691 9.55105C11.158 9.80032 11.1864 10.0385 11.1555 10.2661C11.1246 10.4938 11.0372 10.738 10.8965 10.9994C10.7558 11.2609 10.5477 11.5518 10.2722 11.8722L8.62504 13.7875ZM6.68749 10.9635L7.62163 9.87746C7.87407 9.58386 8.03894 9.35755 8.11632 9.20036C8.21767 8.99475 8.25582 8.80567 8.22844 8.63362C8.20097 8.46165 8.11223 8.31005 7.96097 8.17991C7.81789 8.05678 7.65669 7.98732 7.47938 7.97321C7.30023 7.95944 7.12701 8.00978 6.96005 8.12247C6.79209 8.23634 6.55267 8.47375 6.2418 8.83514L5.37904 9.8383L6.68749 10.9635ZM8.68624 12.6826L9.7612 11.4328C9.94619 11.2177 10.0689 11.0608 10.1302 10.9629C10.2377 10.789 10.308 10.6276 10.341 10.4772C10.3752 10.3274 10.367 10.1739 10.3195 10.0171C10.27 9.86059 10.1782 9.72269 10.0401 9.6039C9.8789 9.46515 9.6975 9.39253 9.49507 9.38535C9.29371 9.37892 9.09537 9.44019 8.90011 9.56942C8.70702 9.69814 8.47161 9.92287 8.19705 10.2421L7.19855 11.403L8.68624 12.6826ZM15.823 7.39103V2.49414H17.114L18.6464 5.96128C18.7881 6.28401 18.8922 6.52568 18.9556 6.68646C19.0295 6.50857 19.1441 6.24628 19.3009 5.90093L20.8513 2.49414H22.0051V7.39103H21.1786V3.2922L19.2964 7.39103H18.5227L16.6494 3.22258V7.39103H15.823ZM27.5338 10.2504L30.5301 6.18768L30.939 6.69231L28.9098 9.2744C28.701 9.5428 28.4842 9.80499 28.2599 10.0606C28.7427 9.82712 29.0209 9.69347 29.0977 9.65983L32.2337 8.29002L32.7149 8.8838L31.2248 10.973C30.8564 11.4923 30.4862 11.9515 30.1158 12.3507C30.3932 12.2034 30.7194 12.0422 31.0913 11.8669L34.0025 10.4727L34.4037 10.9678L29.7818 13.0244L29.3974 12.55L31.6544 9.42333C31.8434 9.16129 31.9602 9.00209 32.0052 8.94558C31.7994 9.04767 31.6216 9.13157 31.4713 9.19744L27.9406 10.7523L27.5338 10.2504Z" fill="white"/>
<path fill-rule="evenodd" clip-rule="evenodd" d="M30.1216 19.4707C30.1216 25.3398 25.3349 30.1265 19.4658 30.1265V19.4707H30.1216Z" fill="#00ACEC"/>
<path fill-rule="evenodd" clip-rule="evenodd" d="M30.1216 19.1079C30.1216 13.2389 25.3349 8.45215 19.4658 8.45215V19.1079H30.1216Z" fill="white"/>
<path fill-rule="evenodd" clip-rule="evenodd" d="M8.44629 19.1079C8.44629 13.2389 13.233 8.45215 19.1021 8.45215V19.1079H8.44629Z" fill="#00ACEC"/>
<path fill-rule="evenodd" clip-rule="evenodd" d="M8.44629 19.4707C8.44629 25.3398 13.233 30.1265 19.1021 30.1265V19.4707H8.44629Z" fill="white"/>
</svg>
