<svg width="38" height="24" viewBox="0 0 38 24" fill="none" xmlns="http://www.w3.org/2000/svg">
<path d="M10.8159 19.6858C11.6744 18.9702 11.8227 18.0822 11.8227 17.2887V13.9447H7.15579V18.4816C7.15579 19.1298 6.62934 19.6563 5.98188 19.6563C5.33291 19.6563 4.85109 19.1306 4.85109 18.4816V5.62891C4.85109 4.98068 5.33291 4.45498 5.98188 4.45498C6.62859 4.45498 7.15579 4.97992 7.15579 5.62891V10.1938H11.8174V5.45872C11.8166 2.84235 10.1072 0.689645 5.94179 0.683594C1.66521 0.683594 0.0488281 2.84689 0.0488281 5.46326V18.881C0.0488281 21.4746 2.1077 23.4375 4.7399 23.4367H6.18611L10.8159 19.6858ZM29.2172 20.2122V5.46704H25.9972V1.12306H37.6553V5.46704H34.4173V23.4118H33.0369L29.2172 20.2122Z" fill="white"/>
<path d="M31.3063 23.4433L19.9523 13.9316L8.1875 23.4433H31.3063Z" fill="#F6D33C"/>
<path d="M23.1947 1.14746H16.6899L12.9004 18.149L19.9567 12.4548L27.314 18.6194L23.1947 1.14746ZM18.6981 11.3649L19.9567 4.93927L21.2055 11.3649H18.6981Z" fill="white"/>
</svg>
