<svg width="42" height="24" viewBox="0 0 42 24" fill="none" xmlns="http://www.w3.org/2000/svg">
<path fill-rule="evenodd" clip-rule="evenodd" d="M11.2368 9.26741L14.0769 1.28714C14.1808 0.92166 14.5128 0.683594 14.8749 0.683594H26.9828C27.3851 0.683594 27.7204 0.971957 27.7975 1.35085L30.7114 9.31771C30.8388 9.75696 30.5873 10.213 30.148 10.3437C30.0709 10.3672 29.9938 10.3773 29.9167 10.3773V10.3806H12.0181C11.5587 10.3806 11.1899 10.0084 11.1899 9.55242C11.1865 9.44512 11.2033 9.35459 11.2368 9.26741Z" fill="#D8892F"/>
<path fill-rule="evenodd" clip-rule="evenodd" d="M0.399482 22.1028L3.23952 14.1225C3.34346 13.757 3.67542 13.5156 4.03755 13.5156H16.1454C16.5511 13.5156 16.8831 13.804 16.9602 14.1829L19.874 22.1497C20.0014 22.589 19.75 23.0484 19.3107 23.1758C19.2336 23.1992 19.1565 23.2093 19.0793 23.2093V23.2127H1.1841C0.724728 23.2127 0.352539 22.8405 0.352539 22.3845C0.352539 22.2839 0.369304 22.1933 0.399482 22.1028Z" fill="#D8892F"/>
<path fill-rule="evenodd" clip-rule="evenodd" d="M22.0503 22.1028L24.887 14.1225C24.9909 13.757 25.3229 13.5156 25.685 13.5156H37.7929C38.1952 13.5156 38.5306 13.804 38.6077 14.1829L41.5248 22.1497C41.6522 22.589 41.4008 23.0484 40.9615 23.1758C40.8844 23.1992 40.8073 23.2093 40.7302 23.2093V23.2127H22.8316C22.3722 23.2127 22.0034 22.8405 22.0034 22.3845C22 22.2839 22.0168 22.1933 22.0503 22.1028Z" fill="#D8892F"/>
</svg>
