<svg width="38" height="33" viewBox="0 0 38 33" fill="none" xmlns="http://www.w3.org/2000/svg">
<mask id="mask0_5568_21110" style="mask-type:alpha" maskUnits="userSpaceOnUse" x="0" y="0" width="23" height="23">
<rect x="0.364258" y="0.305664" width="21.7371" height="21.7371" rx="3.19664" fill="#D9D9D9"/>
</mask>
<g mask="url(#mask0_5568_21110)">
<mask id="mask1_5568_21110" style="mask-type:luminance" maskUnits="userSpaceOnUse" x="-8" y="0" width="38" height="22">
<path d="M29.4951 0.305664H-7.30762V21.7724H29.4951V0.305664Z" fill="white"/>
</mask>
<g mask="url(#mask1_5568_21110)">
<path d="M29.4951 0.305664H-7.30762V21.7724H29.4951V0.305664Z" fill="white"/>
</g>
<mask id="mask2_5568_21110" style="mask-type:luminance" maskUnits="userSpaceOnUse" x="-8" y="0" width="38" height="22">
<path d="M29.4951 0.305664H-7.30762V21.7724H29.4951V0.305664Z" fill="white"/>
</mask>
<g mask="url(#mask2_5568_21110)">
<path d="M17.3339 8.06795L29.4944 1.26074V0.305664H28.6566L14.791 8.06795H17.3339Z" fill="#BD0034"/>
</g>
<mask id="mask3_5568_21110" style="mask-type:luminance" maskUnits="userSpaceOnUse" x="-8" y="0" width="38" height="22">
<path d="M29.4951 0.305664H-7.30762V21.7724H29.4951V0.305664Z" fill="white"/>
</mask>
<g mask="url(#mask3_5568_21110)">
<path d="M16.7607 14.4424L29.4947 21.5687V20.1443L19.3047 14.4424H16.7607Z" fill="#BD0034"/>
</g>
<mask id="mask4_5568_21110" style="mask-type:luminance" maskUnits="userSpaceOnUse" x="-8" y="0" width="38" height="22">
<path d="M29.4951 0.305664H-7.30762V21.7724H29.4951V0.305664Z" fill="white"/>
</mask>
<g mask="url(#mask4_5568_21110)">
<path d="M-7.30762 1.94113L3.58527 8.0685H6.13142L-7.30762 0.515625V1.94113Z" fill="#BD0034"/>
</g>
<mask id="mask5_5568_21110" style="mask-type:luminance" maskUnits="userSpaceOnUse" x="-8" y="0" width="38" height="22">
<path d="M29.4951 0.305664H-7.30762V21.7724H29.4951V0.305664Z" fill="white"/>
</mask>
<g mask="url(#mask5_5568_21110)">
<path d="M5.55355 14.4424L-7.30762 21.6487V21.7738H-4.98409L8.09967 14.4424H5.55355Z" fill="#BD0034"/>
</g>
<mask id="mask6_5568_21110" style="mask-type:luminance" maskUnits="userSpaceOnUse" x="-8" y="0" width="38" height="22">
<path d="M29.4951 0.305664H-7.30762V21.7724H29.4951V0.305664Z" fill="white"/>
</mask>
<g mask="url(#mask6_5568_21110)">
<path d="M26.9761 0.305664H14.0908V7.5219L26.9761 0.305664Z" fill="#1A237B"/>
</g>
<mask id="mask7_5568_21110" style="mask-type:luminance" maskUnits="userSpaceOnUse" x="-8" y="0" width="38" height="22">
<path d="M29.4951 0.305664H-7.30762V21.7724H29.4951V0.305664Z" fill="white"/>
</mask>
<g mask="url(#mask7_5568_21110)">
<path d="M8.40208 0.305664H-4.43164L8.40208 7.5219V0.305664Z" fill="#1A237B"/>
</g>
<mask id="mask8_5568_21110" style="mask-type:luminance" maskUnits="userSpaceOnUse" x="-8" y="0" width="38" height="22">
<path d="M29.4951 0.305664H-7.30762V21.7724H29.4951V0.305664Z" fill="white"/>
</mask>
<g mask="url(#mask8_5568_21110)">
<path d="M29.4943 8.06818V3.14258L20.7539 8.06818H29.4943Z" fill="#1A237B"/>
</g>
<mask id="mask9_5568_21110" style="mask-type:luminance" maskUnits="userSpaceOnUse" x="-8" y="0" width="38" height="22">
<path d="M29.4951 0.305664H-7.30762V21.7724H29.4951V0.305664Z" fill="white"/>
</mask>
<g mask="url(#mask9_5568_21110)">
<path d="M29.4943 19.3142V14.4424H20.7539L29.4943 19.3142Z" fill="#1A237B"/>
</g>
<mask id="mask10_5568_21110" style="mask-type:luminance" maskUnits="userSpaceOnUse" x="-8" y="0" width="38" height="22">
<path d="M29.4951 0.305664H-7.30762V21.7724H29.4951V0.305664Z" fill="white"/>
</mask>
<g mask="url(#mask10_5568_21110)">
<path d="M-3.70312 21.7745H8.4025V14.9902L-3.70312 21.7745Z" fill="#1A237B"/>
</g>
<mask id="mask11_5568_21110" style="mask-type:luminance" maskUnits="userSpaceOnUse" x="-8" y="0" width="38" height="22">
<path d="M29.4951 0.305664H-7.30762V21.7724H29.4951V0.305664Z" fill="white"/>
</mask>
<g mask="url(#mask11_5568_21110)">
<path d="M14.0908 21.7745H26.2359L14.0908 14.9902V21.7745Z" fill="#1A237B"/>
</g>
<mask id="mask12_5568_21110" style="mask-type:luminance" maskUnits="userSpaceOnUse" x="-8" y="0" width="38" height="22">
<path d="M29.4951 0.305664H-7.30762V21.7724H29.4951V0.305664Z" fill="white"/>
</mask>
<g mask="url(#mask12_5568_21110)">
<path d="M-7.30762 14.4424V19.5346L1.73762 14.4424H-7.30762Z" fill="#1A237B"/>
</g>
<mask id="mask13_5568_21110" style="mask-type:luminance" maskUnits="userSpaceOnUse" x="-8" y="0" width="38" height="22">
<path d="M29.4951 0.305664H-7.30762V21.7724H29.4951V0.305664Z" fill="white"/>
</mask>
<g mask="url(#mask13_5568_21110)">
<path d="M-7.30762 8.06772H1.73762L-7.30762 2.96777V8.06772Z" fill="#1A237B"/>
</g>
<mask id="mask14_5568_21110" style="mask-type:luminance" maskUnits="userSpaceOnUse" x="-8" y="0" width="38" height="22">
<path d="M29.4951 0.305664H-7.30762V21.7724H29.4951V0.305664Z" fill="white"/>
</mask>
<g mask="url(#mask14_5568_21110)">
<path d="M9.5394 0.305664V9.34321H-7.30762V13.1701H9.5394V21.7735H12.9518V13.1701H29.494V9.34321H12.9518V0.305664H9.5394Z" fill="#BD0034"/>
</g>
</g>
<mask id="mask15_5568_21110" style="mask-type:alpha" maskUnits="userSpaceOnUse" x="15" y="11" width="23" height="22">
<rect x="15.708" y="11.1738" width="21.7371" height="21.0978" rx="3.19664" fill="#D9D9D9"/>
</mask>
<g mask="url(#mask15_5568_21110)">
<mask id="mask16_5568_21110" style="mask-type:luminance" maskUnits="userSpaceOnUse" x="8" y="11" width="38" height="22">
<path d="M45.1181 11.1729H8.03711V32.803H45.1181V11.1729Z" fill="white"/>
</mask>
<g mask="url(#mask16_5568_21110)">
<path d="M16.7607 11.1729H8.03711V32.803H16.7607V11.1729Z" fill="#EA0020"/>
</g>
<mask id="mask17_5568_21110" style="mask-type:luminance" maskUnits="userSpaceOnUse" x="8" y="11" width="38" height="22">
<path d="M45.1181 11.1729H8.03711V32.803H45.1181V11.1729Z" fill="white"/>
</mask>
<g mask="url(#mask17_5568_21110)">
<path d="M45.1161 11.1729H36.3936V32.803H45.1161V11.1729Z" fill="#EA0020"/>
</g>
<mask id="mask18_5568_21110" style="mask-type:luminance" maskUnits="userSpaceOnUse" x="8" y="11" width="38" height="22">
<path d="M45.1181 11.1729H8.03711V32.803H45.1181V11.1729Z" fill="white"/>
</mask>
<g mask="url(#mask18_5568_21110)">
<path d="M36.3925 11.1729H16.7588V32.803H36.3925V11.1729Z" fill="white"/>
</g>
<mask id="mask19_5568_21110" style="mask-type:luminance" maskUnits="userSpaceOnUse" x="8" y="11" width="38" height="22">
<path d="M45.1181 11.1729H8.03711V32.803H45.1181V11.1729Z" fill="white"/>
</mask>
<g mask="url(#mask19_5568_21110)">
<mask id="mask20_5568_21110" style="mask-type:luminance" maskUnits="userSpaceOnUse" x="8" y="11" width="38" height="22">
<path d="M45.1181 11.1719H8.03711V32.802H45.1181V11.1719Z" fill="white"/>
</mask>
<g mask="url(#mask20_5568_21110)">
<path d="M26.5765 13.9775L25.2894 16.4766C25.1436 16.7484 24.8828 16.7208 24.621 16.5705L23.6885 16.0667L24.3834 19.9082C24.5304 20.6108 24.0608 20.6108 23.8299 20.307L22.2047 18.4112L21.9407 19.3724C21.912 19.4972 21.7783 19.632 21.5761 19.5999L19.5222 19.1481L20.0614 21.1931C20.1785 21.6494 20.2669 21.8383 19.9454 21.9576L19.2129 22.3156L22.7516 25.3096C22.8897 25.4245 22.9626 25.6245 22.9107 25.8101L22.6025 26.8696C23.8189 26.7238 24.9137 26.5901 26.1279 26.4432C26.2362 26.4432 26.4174 26.5393 26.4163 26.6686L26.255 30.5465H26.8483L26.7533 26.6774C26.7533 26.5515 26.9168 26.4432 27.0228 26.4432C28.2426 26.5901 29.3341 26.7238 30.5516 26.8696L30.2401 25.8101C30.1926 25.6245 30.2633 25.4234 30.4014 25.3096L33.939 22.3156L33.2065 21.9576C32.8839 21.8383 32.9745 21.6494 33.0905 21.1931L33.6308 19.1481L31.5758 19.5999C31.3736 19.632 31.241 19.4972 31.2112 19.3724L30.9483 18.4112L29.322 20.307C29.0911 20.6097 28.6226 20.6097 28.7696 19.9082L29.4623 16.0667L28.5331 16.5705C28.2702 16.7208 28.0072 16.7484 27.8647 16.4766L26.5765 13.9775Z" fill="#EA0020"/>
</g>
</g>
</g>
</svg>
