<svg width="36" height="30" viewBox="0 0 36 30" fill="none" xmlns="http://www.w3.org/2000/svg">
<path fill-rule="evenodd" clip-rule="evenodd" d="M10.0151 17.4603L12.3839 10.8042C12.4706 10.4993 12.7474 10.3008 13.0495 10.3008H23.1483C23.4839 10.3008 23.7635 10.5413 23.8279 10.8573L26.2582 17.5022C26.3644 17.8686 26.1547 18.2489 25.7883 18.358C25.724 18.3776 25.6597 18.386 25.5954 18.386V18.3888H10.6667C10.2836 18.3888 9.97594 18.0783 9.97594 17.698C9.97314 17.6085 9.98712 17.533 10.0151 17.4603Z" fill="#FAC900"/>
<path fill-rule="evenodd" clip-rule="evenodd" d="M0.976653 28.1662L3.34543 21.5101C3.43213 21.2053 3.709 21.0039 4.01104 21.0039H14.1098C14.4482 21.0039 14.7251 21.2444 14.7894 21.5604L17.2197 28.2053C17.326 28.5717 17.1162 28.9548 16.7499 29.0611C16.6856 29.0807 16.6212 29.0891 16.5569 29.0891V29.0919H1.63107C1.24793 29.0919 0.9375 28.7815 0.9375 28.4011C0.9375 28.3172 0.951483 28.2417 0.976653 28.1662Z" fill="#FAC900"/>
<path fill-rule="evenodd" clip-rule="evenodd" d="M19.0346 28.1662L21.4006 21.5101C21.4873 21.2053 21.7642 21.0039 22.0662 21.0039H32.165C32.5006 21.0039 32.7803 21.2444 32.8446 21.5604L35.2777 28.2053C35.384 28.5717 35.1742 28.9548 34.8079 29.0611C34.7435 29.0807 34.6792 29.0891 34.6149 29.0891V29.0919H19.6862C19.3031 29.0919 18.9955 28.7815 18.9955 28.4011C18.9927 28.3172 19.0067 28.2417 19.0346 28.1662Z" fill="#FAC900"/>
<path d="M18.1372 0.167969L19.4276 2.9328L22.1924 4.22314L19.4276 5.51349L18.1372 8.27832L16.8469 5.51349L14.082 4.22314L16.8469 2.9328L18.1372 0.167969Z" fill="white"/>
<path d="M5.97134 13.0332L6.59427 14.3679L7.92901 14.9909L6.59427 15.6138L5.97134 16.9485L5.34842 15.6138L4.01367 14.9909L5.34842 14.3679L5.97134 13.0332Z" fill="white"/>
<path d="M29.1833 8.27832L29.8062 9.61306L31.1409 10.236L29.8062 10.8589L29.1833 12.1937L28.5603 10.8589L27.2256 10.236L28.5603 9.61306L29.1833 8.27832Z" fill="white"/>
</svg>
