<svg clip-rule="evenodd" fill-rule="evenodd" stroke-linejoin="round" stroke-miterlimit="2" viewBox="0 0 560 400" xmlns="http://www.w3.org/2000/svg"><path d="m256.893 76.726 2.497-.95c-.83-2.808-1.855-5.531-3.062-8.153l-2.497.95c.374.892.734 1.793 1.087 2.698l-8.001 3.042c.364.89.704 1.793 1.018 2.708l7.999-3.042c.329.91.651 1.825.959 2.747zm-7.123-10.202c2.718-1.917 3.368-5.574 1.41-8.384-1.957-2.81-5.596-3.443-8.313-1.526-2.718 1.917-3.368 5.574-1.411 8.384 1.958 2.81 5.596 3.443 8.314 1.526zm-9.227-12.413c2.087-2.597 1.709-6.293-.943-8.451-2.651-2.157-6.322-1.755-8.409.842-2.087 2.596-1.709 6.292.943 8.45s6.323 1.756 8.409-.841zm-14.533-16.54c-1.435-.637-2.841-1.209-4.21-1.695l-4.299 10.524c.896.311 1.779.647 2.65 1.008l2.046-4.997-.002.014.818 6.274c1.017.5 2.016 1.033 2.992 1.6l-.805-5.358c1.663.109 2.827-.787 3.352-1.981.931-2.115-.105-4.304-2.542-5.389zm-13.748 2.81 5.332-5.838c-.997-.277-2.004-.527-3.021-.753l-3.201 3.64-1.772-4.527c-1.063-.143-2.134-.26-3.213-.347l3.048 7.372-.756 4.314c.949.14 1.889.306 2.819.499zm-8.376 3.393-3.197-4.398c1.53-.668 2.158-2 2.082-3.304-.133-2.309-2.053-3.778-4.713-3.622-1.29.07-2.852.209-4.525.428l.971 11.335c.001 0 .002 0 .002-.001.101-.014.203-.025.304-.039.265-.036.531-.071.797-.103.091-.011.182-.024.273-.035h.002c.016-.002.032-.004.048-.006.083-.009.167-.015.25-.024.245-.027.492-.051.738-.074.133-.013.265-.028.398-.04h.003l-.45-5.384.004.013 3.632 5.208c.331-.007.662-.013.995-.013.8 0 1.595.021 2.386.059zm-13.396-.183-1.562-5.36-4.275 1.293.257 2.366 2.108-.688.446 1.682c-.404.369-.913.672-1.511.876-1.817.618-3.671-.027-4.33-1.986-.595-1.769.207-3.54 2.067-4.173.821-.28 1.768-.306 2.759-.159l.397-2.687c-1.193-.234-2.905-.101-4.025.306-3.504 1.193-4.976 4.556-3.937 7.646 1.073 3.192 4.166 4.888 7.742 3.671 1.673-.57 3.238-1.685 3.864-2.787zm-12.142 6.289-6.232-9.855c-.825.464-1.637.948-2.438 1.449l3.133 4.957-9.107-1.162-.266.18 6.791 9.585c.727-.605 1.472-1.19 2.234-1.753l-3.193-4.513 8.77 1.286zm-14.207 4.637-5.106-4.596c-.682.679-1.349 1.374-1.998 2.085l4.926 4.428c1.003.918 1.154 2.112.267 3.163-.887 1.05-2.082 1.094-3.145.247l-5.143-4.176c-.591.76-1.165 1.533-1.721 2.321l5.337 4.328c2.184 1.766 5.028 1.141 6.772-.926 1.745-2.066 1.896-4.991-.189-6.874zm-5.09 13.759-10.159-5.008c-.471.839-.924 1.691-1.356 2.554l3.892 1.919-1.79 3.937-3.987-1.707c-.365.891-.71 1.791-1.034 2.703l10.41 4.455c.312-.916.651-1.82 1.014-2.711l-4.026-1.723 1.732-3.811 3.927 1.936c.435-.863.894-1.711 1.377-2.544zm113.949 19.724h-34.026c-2.487-18.592-18.316-32.928-37.474-32.928-19.159 0-34.987 14.336-37.474 32.928h-34.026c2.612-37.442 33.625-67 71.5-67s68.888 29.558 71.5 67zm-35.113-40.207c-1.397-1.137-3.327-.855-4.447.539-1.12 1.393-.99 3.351.407 4.488 1.397 1.136 3.327.855 4.447-.539s.99-3.352-.407-4.488zm-13.062-8.168c-.423-.199-.847-.374-1.274-.522l-1.156 2.824 1.157.516c1.058.47 1.953.216 2.341-.667.376-.854-.01-1.68-1.068-2.151zm-26.884-4.805c-.534.027-1.07.085-1.371.109l.255 3.057 1.264-.074c1.155-.068 1.835-.706 1.779-1.67-.054-.933-.772-1.489-1.927-1.422zm51.008 24.894c1.031 1.48.619 3.398-.839 4.426-1.459 1.029-3.391.764-4.422-.716s-.62-3.398.839-4.426c1.458-1.029 3.391-.764 4.422.716z" fill="#f73a44" transform="matrix(2.51748 0 0 2.51748 -227.273 62.7972)"/></svg>