<svg width="34" height="30" viewBox="0 0 34 30" fill="none" xmlns="http://www.w3.org/2000/svg">
<path fill-rule="evenodd" clip-rule="evenodd" d="M33.7858 28.2369C33.6374 21.0219 32.4752 14.0777 30.5117 8.68408C28.5328 3.2506 26.0627 0.257812 23.5584 0.257812C22.0021 0.257812 20.5404 1.38999 19.2116 3.62496C18.3887 5.01114 17.6218 6.83117 16.9549 8.97307C16.286 6.83117 15.5205 5.01114 14.6962 3.62496C13.3688 1.38999 11.9063 0.257812 10.3501 0.257812C7.84361 0.257812 5.37493 3.2506 3.39677 8.68408C1.434 14.0777 0.27103 21.0219 0.122685 28.2362L0.104492 29.0829H5.13352L5.14332 28.2656C5.33855 13.1918 8.92891 3.63126 10.3914 3.63126C11.3766 3.63126 13.8943 10.2515 14.2763 26.6422L14.2959 27.4497H19.6125L19.6314 26.6422C20.0128 10.2515 22.5311 3.63056 23.5164 3.63056C24.9795 3.63056 28.5685 13.1911 28.7644 28.2649L28.7749 29.0829H33.8019L33.7858 28.2369Z" fill="#F1BB00"/>
</svg>
