<svg width="32" height="32" viewBox="0 0 32 32" fill="none" xmlns="http://www.w3.org/2000/svg">
<path d="M16.3187 31.1671L20.6261 6.9418C24.7319 6.9418 26.0269 7.39202 26.2139 9.22969C26.2139 9.22969 28.9682 8.20274 30.3573 6.11701C24.9365 3.6051 19.4897 3.49182 19.4897 3.49182L16.3115 7.36288L16.3187 7.3624L13.1404 3.49121C13.1404 3.49121 7.69356 3.60462 2.27344 6.11652C3.66137 8.20225 6.41672 9.22921 6.41672 9.22921C6.6048 7.39142 7.89827 6.9412 11.9765 6.93828L16.3187 31.1671Z" fill="#E82127"/>
<path d="M16.3168 2.37378C20.6988 2.34027 25.7144 3.05166 30.849 5.28952C31.5353 4.05433 31.7117 3.50843 31.7117 3.50843C26.0989 1.28781 20.8425 0.527852 16.3162 0.508789C11.79 0.527852 6.53396 1.28793 0.921875 3.50843C0.921875 3.50843 1.17224 4.18085 1.78395 5.28952C6.91752 3.05166 11.934 2.34027 16.3162 2.37378H16.3168Z" fill="#E82127"/>
</svg>
