<?xml version="1.0" encoding="UTF-8"?>
<svg xmlns="http://www.w3.org/2000/svg" version="1.1" viewBox="0 0 300 300">
  <defs>
    <style>
      .cls-1 {
        fill: #fff;
      }

      .cls-2 {
        fill: #ff6c0c;
      }
    </style>
  </defs>
  <!-- Generator: Adobe Illustrator 28.6.0, SVG Export Plug-In . SVG Version: 1.2.0 Build 709)  -->
  <g>
    <g id="Layer_1">
      <g>
        <path class="cls-1" d="M163.5,201.7c-2.7,2.5-5.3,5.2-7.7,8-1.6,1.9-3.2,3.8-4.5,5.7-1.5-2-3-3.9-4.5-5.7-2.9-3.3-6-6.4-9.3-9.3-21.8-19.5-51.1-28.4-80-24.1.8,4.1,2.1,8,4,11.8,24-3,48.1,4.3,66.4,20,4.3,3.7,8.2,7.8,11.7,12.2,1.6,2,3.1,4.2,4.5,6.4h14.3c1.4-2.2,2.9-4.3,4.5-6.4,3.2-4.1,6.8-7.9,10.8-11.3,15.8-14,36.2-21.7,57.3-21.6h8.1c1.8-3.8,3.1-7.8,3.9-11.9-4-.3-8-.4-12-.2-25-.2-49.1,9.3-67.4,26.3Z"/>
        <path class="cls-1" d="M197.5,119.7c0-26.2-21.3-47.5-47.5-47.5-26.2,0-47.5,21.3-47.5,47.5-25.8.6-46.3,21.6-46.4,47.4v2.1c5.1-.7,10.2-1.1,15.3-1.1,30.4,0,59.4,13.1,79.4,36,2.3-2.7,4.8-5.2,7.4-7.7,19.7-18.4,45.7-28.6,72.7-28.4,4.3,0,8.6.3,12.8.8v-1.8c0-25.7-20.6-46.7-46.3-47.4Z"/>
        <path class="cls-2" d="M256.1,26.9H43.9c-9.4,0-17,7.6-17,17h0v212.2c0,9.4,7.6,17,17,17h212.2c9.4,0,17-7.6,17-17V43.9c0-9.4-7.6-17-17-17ZM57.5,176.2c29-4.3,58.5,4.6,80.3,24.2,3.3,2.9,6.4,6,9.3,9.3,1.6,1.9,3.1,3.8,4.5,5.7,1.5-1.9,3-3.9,4.5-5.7,21.4-25.1,54-37.8,86.7-33.8-.8,4.1-2.1,8.1-3.9,11.9h-8.1c-21,0-41.2,7.6-56.9,21.5-3.9,3.4-7.5,7.2-10.8,11.3-1.6,2-3.1,4.2-4.5,6.4h-14.5c-1.4-2.2-2.9-4.3-4.5-6.4-3.5-4.5-7.4-8.6-11.7-12.2-18.3-15.7-42.4-23-66.4-20-1.9-3.8-3.3-7.9-4.1-12.1ZM243.4,168.8c-4.1-.5-8.3-.8-12.4-.8-26.7,0-52.5,10.1-72,28.4-2.6,2.4-5.1,5-7.4,7.7-23.6-27.1-59.4-40.2-95-34.9v-2.1c0-25.8,20.6-46.8,46.4-47.4,1.2-26.2,23.3-46.5,49.5-45.3,24.6,1.1,44.2,20.8,45.3,45.3,25.8.6,46.3,21.6,46.4,47.4-.7.6-.8,1.2-.8,1.8Z"/>
      </g>
    </g>
  </g>
</svg>