<svg width="48" height="48" viewBox="0 0 48 48" fill="none" xmlns="http://www.w3.org/2000/svg">
<rect width="48" height="48" rx="5" fill="url(#paint0_linear_5201_142247)"/>
<path fill-rule="evenodd" clip-rule="evenodd" d="M20.9892 17.9925C18.4191 16.1929 15.8777 15.7959 13.2502 16.4828C13.8248 15.1011 14.6893 14.1948 15.7054 13.769C17.1445 13.1657 19.5004 13.594 20.4277 14.8843C20.903 15.5425 21.1407 16.5194 20.9892 17.9925ZM29.5954 27.949C29.5249 27.6565 29.7077 27.364 30.0003 27.2934C30.2928 27.2229 30.5853 27.4057 30.6558 27.6983C30.7969 28.2912 31.0398 28.7509 31.3637 29.0826C31.6954 29.4195 32.1211 29.6363 32.6278 29.7356C32.923 29.793 33.1136 30.0777 33.0562 30.3729C32.9987 30.668 32.714 30.8587 32.4189 30.8012C31.698 30.6576 31.079 30.3415 30.5905 29.8426C30.123 29.3673 29.7835 28.7404 29.5954 27.949ZM11.3174 27.949C11.2468 27.6565 11.4297 27.364 11.7222 27.2934C12.0147 27.2229 12.3073 27.4057 12.3778 27.6983C12.5188 28.2912 12.7617 28.7509 13.0856 29.0826C13.4173 29.4195 13.8431 29.6363 14.3498 29.7356C14.6449 29.793 14.8356 30.0777 14.7781 30.3729C14.7207 30.668 14.436 30.8587 14.1408 30.8012C13.4199 30.6576 12.8009 30.3415 12.3125 29.8426C11.845 29.3673 11.5054 28.7404 11.3174 27.949ZM23.7918 25.9614C24.5231 25.9614 25.116 26.5386 25.116 27.249C25.116 27.9595 24.5231 28.5367 23.7918 28.5367C23.0604 28.5367 22.4675 27.9595 22.4675 27.249C22.4675 26.5386 23.0604 25.9614 23.7918 25.9614ZM14.7442 22.5293C17.3561 22.5293 19.4743 24.5875 19.4743 27.1289C19.4743 29.6676 17.3561 31.7284 14.7442 31.7284C12.1323 31.7284 10.014 29.6703 10.014 27.1289C10.014 24.5875 12.1297 22.5293 14.7442 22.5293ZM33.0222 22.5293C35.6341 22.5293 37.7524 24.5875 37.7524 27.1289C37.7524 29.6676 35.6341 31.7284 33.0222 31.7284C30.4103 31.7284 28.2921 29.6703 28.2921 27.1289C28.2921 24.5875 30.4077 22.5293 33.0222 22.5293ZM26.6675 17.9925C29.2376 16.1929 31.779 15.7959 34.4039 16.4828C33.8293 15.1011 32.9648 14.1948 31.9487 13.769C30.5096 13.1657 28.1536 13.594 27.229 14.8843C26.7537 15.5425 26.516 16.5194 26.6675 17.9925ZM35.877 18.0447C34.9837 17.1253 33.5368 16.71 31.5334 16.7988C29.2637 16.9111 26.866 17.8593 26.0955 20.0089C25.4503 18.5932 22.2064 18.5932 21.5638 20.0089C20.7933 17.8593 18.3956 16.9085 16.1259 16.7988C14.1225 16.71 12.6782 17.1279 11.7823 18.0447C10.5234 19.732 8.0316 24.1409 7.82265 26.2957C6.97117 35.0403 19.5135 37.2343 21.5247 28.205C22.6661 30.2292 24.9906 30.2292 26.132 28.205C28.1432 37.2369 40.6855 35.0403 39.834 26.2957C39.6251 24.1409 37.1333 19.732 35.877 18.0447Z" fill="url(#paint1_linear_5201_142247)"/>
<defs>
<linearGradient id="paint0_linear_5201_142247" x1="24" y1="0" x2="24" y2="48" gradientUnits="userSpaceOnUse">
<stop stop-color="#79859A"/>
<stop offset="1" stop-color="#79859A" stop-opacity="0"/>
</linearGradient>
<linearGradient id="paint1_linear_5201_142247" x1="23.8283" y1="13.5" x2="23.8283" y2="34.0046" gradientUnits="userSpaceOnUse">
<stop stop-color="white"/>
<stop offset="1" stop-color="white" stop-opacity="0.54"/>
</linearGradient>
</defs>
</svg>
