<svg width="48" height="48" viewBox="0 0 48 48" fill="none" xmlns="http://www.w3.org/2000/svg">
<rect width="48" height="48" rx="5" fill="url(#paint0_linear_5201_142259)"/>
<path d="M31.1113 21.1518L31.0255 20.6615L28.552 19.8281C28.6109 19.9237 28.6697 20.0168 28.731 20.1075C29.0425 20.528 29.2773 21.0002 29.4247 21.5024V21.5465C27.0422 22.3085 25.005 23.8868 23.6718 26.0034C22.3387 28.1199 21.7951 30.639 22.1368 33.117C22.0767 33.0713 22.0279 33.0124 21.9943 32.9448C21.9607 32.8772 21.9432 32.8027 21.9431 32.7272C21.941 32.4882 21.9147 32.25 21.8647 32.0163C21.8037 31.732 21.7218 31.4526 21.6195 31.1804C21.5038 30.8832 21.4056 30.5796 21.3254 30.2709C21.2604 30.026 21.225 29.7742 21.22 29.5208C21.2178 29.3505 21.2334 29.1805 21.2665 29.0134C21.2997 28.8511 21.3629 28.6965 21.4528 28.5574C21.4692 28.5217 21.48 28.4837 21.4847 28.4447C21.5039 28.314 21.5121 28.182 21.5092 28.05C21.5087 27.9135 21.4872 27.7779 21.4455 27.648C21.3882 27.4773 21.3135 27.313 21.2224 27.1577C21.0974 26.9395 21.0018 26.7606 20.938 26.6282C20.8549 26.4846 20.8031 26.325 20.7861 26.16C20.7861 25.351 20.5091 25.1794 20.1242 25.1794C19.8696 25.1867 19.6158 25.2104 19.3643 25.2505C19.0236 25.305 18.6796 25.3361 18.3347 25.3437C18.0435 25.33 17.7692 25.2034 17.5698 24.9907C17.3462 24.7666 17.1526 24.5144 16.9938 24.2405C16.8148 23.9439 16.6775 23.7037 16.5868 23.5247C16.4836 23.3517 16.4185 23.1587 16.3956 22.9585V22.5736C16.3834 21.2033 16.3711 19.9065 17.6924 18.9505C18.2415 18.1709 18.7343 17.6659 19.3299 17.3424C19.9256 17.0188 20.6365 16.8913 21.5656 16.8913C21.6956 16.8913 21.8203 16.943 21.9123 17.0349C22.0042 17.1269 22.0559 17.2516 22.0559 17.3816V18.0802L22.6491 18.3401V18.3008C22.6622 18.2372 22.6878 18.1768 22.7245 18.1231C22.7611 18.0695 22.808 18.0237 22.8626 17.9883C22.9171 17.9529 22.9781 17.9288 23.042 17.9172C23.1059 17.9056 23.1715 17.9069 23.235 17.9209C23.4012 17.9572 23.5649 18.0038 23.7253 18.0606C23.8738 18.1134 24.016 18.1824 24.1494 18.2665C24.2455 18.3177 24.3502 18.351 24.4582 18.3646C24.6066 18.3915 24.7585 18.3915 24.9068 18.3646C24.958 18.3588 25.0073 18.342 25.0515 18.3156C25.0637 18.242 25.0735 18.1685 25.0833 18.0925L24.4974 18.1464C24.3966 18.1558 24.2954 18.1338 24.2076 18.0833C24.1198 18.0328 24.0498 17.9564 24.0072 17.8645C23.8135 17.4576 23.4066 17.2492 22.8918 16.9869C20.2933 15.6607 17.8836 16.6878 17.6851 16.1338C17.5747 15.825 17.7341 15.5774 17.9498 15.244C18.1655 14.9106 18.418 14.5086 18.418 14.1163C18.4176 14.0139 18.4493 13.9138 18.5086 13.8303C18.568 13.7467 18.652 13.6839 18.749 13.6506L20.7346 12.7436C20.5213 12.7043 20.2443 12.6578 20.0359 11.589C20.0135 11.4854 20.0253 11.3773 20.0695 11.2809C20.1137 11.1846 20.1879 11.1052 20.2811 11.0546C20.2811 11.0546 20.8302 10.7359 20.8694 10.7163C21.0802 10.5741 21.3352 10.3878 21.6293 10.1623H21.6489C20.6473 10.3101 19.6682 10.5827 18.7343 10.9737C17.9755 11.2971 17.2484 11.6902 16.5623 12.1479C15.8897 12.5973 15.264 13.113 14.6944 13.6874C14.1214 14.2566 13.6065 14.8816 13.1574 15.5529C12.6984 16.2395 12.3045 16.9674 11.9807 17.7272L11.9611 17.7542C11.6362 18.5157 11.3898 19.3083 11.2257 20.1198C10.8955 21.8058 10.8955 23.5399 11.2257 25.226C11.2257 25.2701 11.2453 25.3143 11.2526 25.3584L13.5398 26.4517C13.621 26.4903 13.69 26.5505 13.7393 26.6258C13.7886 26.701 13.8163 26.7883 13.8192 26.8782C13.8242 27.4393 13.7123 27.9953 13.4907 28.5109C13.3332 28.8899 13.2348 29.2909 13.199 29.6998C13.2013 29.7459 13.1971 29.7921 13.1868 29.837C13.6296 30.4898 14.1336 31.0989 14.6919 31.656C15.2627 32.2283 15.8884 32.7431 16.5599 33.193C17.2459 33.6515 17.973 34.0454 18.7318 34.3697H18.7563C19.5168 34.6949 20.3087 34.9413 21.1194 35.1051C21.6369 35.2067 22.16 35.2771 22.6859 35.3159C22.8132 35.6617 22.9588 36.0005 23.1222 36.3308C22.3812 36.3032 21.6435 36.2171 20.916 36.0734C20.0389 35.8976 19.1821 35.6323 18.3592 35.2816H18.3322C17.5208 34.9281 16.7437 34.5005 16.0108 34.0044C15.2857 33.5185 14.6099 32.9626 13.9933 32.3448C13.3748 31.7288 12.8189 31.053 12.3337 30.3273C11.8409 29.591 11.4174 28.8106 11.0688 27.9961C10.7131 27.169 10.4444 26.3072 10.2672 25.4246C9.91094 23.6115 9.91094 21.7465 10.2672 19.9335C10.441 19.0535 10.7064 18.1941 11.059 17.3693C11.058 17.3604 11.058 17.3513 11.059 17.3424C11.408 16.528 11.8315 15.7476 12.3239 15.0111C12.8098 14.286 13.3657 13.6103 13.9835 12.9936C14.5987 12.3753 15.2737 11.8194 15.9985 11.334C16.736 10.8404 17.5182 10.4169 18.3347 10.0691C20.0217 9.35158 21.8381 8.98781 23.6713 9.00031C24.5956 8.99742 25.5178 9.08693 26.4242 9.26751C27.2996 9.44294 28.1546 9.70743 28.9761 10.0569L29.0031 10.0691C29.8146 10.4191 30.5925 10.8425 31.327 11.334C32.0513 11.82 32.7262 12.3758 33.342 12.9936C33.9614 13.6095 34.5181 14.2853 35.0041 15.0111C35.4986 15.745 35.9245 16.5229 36.2763 17.335C36.6326 18.1652 36.9012 19.0303 37.0779 19.9163C37.2216 20.6438 37.3077 21.3815 37.3353 22.1226C35.4075 21.174 33.2374 20.8321 31.1113 21.142V21.1518ZM31.4373 28.8246C31.4318 28.7332 31.445 28.6416 31.4762 28.5554C31.5074 28.4693 31.5559 28.3904 31.6187 28.3237C31.6815 28.257 31.7573 28.2038 31.8414 28.1675C31.9255 28.1311 32.0161 28.1124 32.1078 28.1124C32.1994 28.1124 32.29 28.1311 32.3741 28.1675C32.4583 28.2038 32.534 28.257 32.5968 28.3237C32.6596 28.3904 32.7081 28.4693 32.7393 28.5554C32.7705 28.6416 32.7837 28.7332 32.7782 28.8246V32.1585L35.0433 33.1538C35.192 33.2339 35.305 33.3671 35.3599 33.5268C35.4148 33.6865 35.4075 33.861 35.3395 34.0156C35.2715 34.1702 35.1477 34.2935 34.9929 34.3609C34.838 34.4283 34.6635 34.4349 34.504 34.3795L31.8737 33.2249C31.7454 33.1769 31.6348 33.0908 31.5568 32.9782C31.4788 32.8656 31.4371 32.7318 31.4373 32.5949V28.8246ZM37.7815 26.2213C37.8031 26.2803 37.8155 26.3423 37.8183 26.4051C37.8426 26.5499 37.8135 26.6985 37.7363 26.8235C37.6592 26.9484 37.5394 27.041 37.3991 27.0841L35.7812 27.5744C35.6311 27.614 35.4715 27.5944 35.3354 27.5197C35.1993 27.445 35.0971 27.3209 35.0499 27.173C35.0027 27.0252 35.0141 26.8648 35.0818 26.7251C35.1494 26.5854 35.2682 26.477 35.4134 26.4223C34.685 26.0467 33.8874 25.824 33.0697 25.7679C32.252 25.7118 31.4315 25.8234 30.6586 26.0959C29.8856 26.3684 29.1765 26.7961 28.5748 27.3526C27.9731 27.9092 27.4916 28.5828 27.1597 29.3322C26.8279 30.0816 26.6527 30.891 26.645 31.7105C26.6373 32.5301 26.7972 33.3426 27.1149 34.0981C27.4327 34.8536 27.9015 35.5362 28.4926 36.1039C29.0837 36.6717 29.7847 37.1126 30.5524 37.3996L30.6063 37.4167C30.7632 37.4731 30.9225 37.5221 31.0819 37.5663C31.1045 37.5718 31.1266 37.5791 31.148 37.5883C31.6405 37.7156 32.147 37.7799 32.6556 37.7795C32.8112 37.7789 32.9621 37.8326 33.0822 37.9315L33.1508 37.8653C33.2464 37.7911 33.3596 37.7429 33.4793 37.7256C33.8957 37.6647 34.3058 37.5671 34.705 37.4339C34.8707 37.396 35.0445 37.4224 35.1915 37.5077C35.3385 37.5929 35.4478 37.7307 35.4972 37.8933C35.5466 38.0559 35.5326 38.2312 35.4579 38.3839C35.3832 38.5365 35.2535 38.6552 35.0948 38.716C34.6289 38.8756 34.1486 38.9897 33.6607 39.0567C33.569 39.0683 33.476 39.0612 33.3871 39.0359C33.2982 39.0106 33.2153 38.9677 33.1435 38.9096C33.0807 38.9766 33.0047 39.0299 32.9203 39.0662C32.836 39.1025 32.745 39.1209 32.6532 39.1204C31.5343 39.122 30.4297 38.8683 29.4237 38.3786C28.4176 37.8888 27.5366 37.176 26.8476 36.2943C26.1587 35.4126 25.6801 34.3853 25.4481 33.2907C25.2162 32.196 25.2371 31.0629 25.5092 29.9776C25.7814 28.8923 26.2976 27.8834 27.0186 27.0277C27.7396 26.172 28.6463 25.4921 29.6697 25.0398C30.6932 24.5875 31.8063 24.3747 32.9244 24.4176C34.0425 24.4604 35.1361 24.7579 36.1219 25.2873L36.041 25.0716C35.9933 24.9233 36.0044 24.7624 36.0719 24.622C36.1394 24.4817 36.2582 24.3726 36.4038 24.3173C36.5493 24.2619 36.7106 24.2646 36.8543 24.3246C36.998 24.3847 37.1131 24.4976 37.176 24.6401L37.779 26.2188L37.7815 26.2213ZM38.8331 27.7852C38.7356 27.6354 38.5825 27.5304 38.4076 27.4934C38.2327 27.4564 38.0502 27.4904 37.9004 27.5879C37.7505 27.6854 37.6455 27.8385 37.6085 28.0134C37.5715 28.1883 37.6055 28.3708 37.703 28.5207C37.9213 28.8589 38.1061 29.2177 38.2546 29.5919C38.327 29.7465 38.4556 29.8677 38.6142 29.9309C38.7728 29.994 38.9495 29.9945 39.1084 29.932C39.2673 29.8696 39.3965 29.749 39.4697 29.5948C39.5428 29.4405 39.5545 29.2642 39.5024 29.1016C39.3248 28.6435 39.1005 28.2048 38.8331 27.7926V27.7852ZM36.72 36.2278C36.5954 36.3469 36.5214 36.5093 36.5132 36.6815C36.505 36.8536 36.5633 37.0223 36.6761 37.1527C36.7888 37.2831 36.9473 37.3651 37.1189 37.3819C37.2904 37.3986 37.4618 37.3488 37.5976 37.2427C37.9733 36.9046 38.3119 36.5274 38.6076 36.1175C38.7032 35.9734 38.7396 35.7981 38.7092 35.6279C38.6787 35.4577 38.5839 35.3058 38.4443 35.2037C38.3047 35.1017 38.1311 35.0575 37.9597 35.0802C37.7883 35.1029 37.6323 35.1908 37.5241 35.3257C37.2879 35.6533 37.0184 35.9556 36.72 36.2278ZM38.5095 33.1489C38.4793 33.3025 38.5037 33.4618 38.5785 33.5994C38.6533 33.7369 38.7738 33.844 38.9191 33.9021C39.0645 33.9603 39.2256 33.9658 39.3746 33.9178C39.5236 33.8698 39.6512 33.7712 39.7352 33.6391C39.7706 33.5798 39.7962 33.5153 39.8112 33.4479C39.9206 32.9697 39.9838 32.4821 40 31.9918C39.9964 31.8197 39.9269 31.6556 39.8058 31.5333C39.6848 31.4109 39.5213 31.3398 39.3493 31.3344C39.1773 31.3291 39.0098 31.39 38.8813 31.5045C38.7529 31.6191 38.6733 31.7786 38.6591 31.9501C38.6459 32.3547 38.5934 32.757 38.5022 33.1513L38.5095 33.1489Z" fill="white"/>
<path d="M31.1113 21.1518L31.0255 20.6615L28.552 19.8281C28.6109 19.9237 28.6697 20.0168 28.731 20.1075C29.0425 20.528 29.2773 21.0002 29.4247 21.5024V21.5465C27.0422 22.3085 25.005 23.8868 23.6718 26.0034C22.3387 28.1199 21.7951 30.639 22.1368 33.117C22.0767 33.0713 22.0279 33.0124 21.9943 32.9448C21.9607 32.8772 21.9432 32.8027 21.9431 32.7272C21.941 32.4882 21.9147 32.25 21.8647 32.0163C21.8037 31.732 21.7218 31.4526 21.6195 31.1804C21.5038 30.8832 21.4056 30.5796 21.3254 30.2709C21.2604 30.026 21.225 29.7742 21.22 29.5208C21.2178 29.3505 21.2334 29.1805 21.2665 29.0134C21.2997 28.8511 21.3629 28.6965 21.4528 28.5574C21.4692 28.5217 21.48 28.4837 21.4847 28.4447C21.5039 28.314 21.5121 28.182 21.5092 28.05C21.5087 27.9135 21.4872 27.7779 21.4455 27.648C21.3882 27.4773 21.3135 27.313 21.2224 27.1577C21.0974 26.9395 21.0018 26.7606 20.938 26.6282C20.8549 26.4846 20.8031 26.325 20.7861 26.16C20.7861 25.351 20.5091 25.1794 20.1242 25.1794C19.8696 25.1867 19.6158 25.2104 19.3643 25.2505C19.0236 25.305 18.6796 25.3361 18.3347 25.3437C18.0435 25.33 17.7692 25.2034 17.5698 24.9907C17.3462 24.7666 17.1526 24.5144 16.9938 24.2405C16.8148 23.9439 16.6775 23.7037 16.5868 23.5247C16.4836 23.3517 16.4185 23.1587 16.3956 22.9585V22.5736C16.3834 21.2033 16.3711 19.9065 17.6924 18.9505C18.2415 18.1709 18.7343 17.6659 19.3299 17.3424C19.9256 17.0188 20.6365 16.8913 21.5656 16.8913C21.6956 16.8913 21.8203 16.943 21.9123 17.0349C22.0042 17.1269 22.0559 17.2516 22.0559 17.3816V18.0802L22.6491 18.3401V18.3008C22.6622 18.2372 22.6878 18.1768 22.7245 18.1231C22.7611 18.0695 22.808 18.0237 22.8626 17.9883C22.9171 17.9529 22.9781 17.9288 23.042 17.9172C23.1059 17.9056 23.1715 17.9069 23.235 17.9209C23.4012 17.9572 23.5649 18.0038 23.7253 18.0606C23.8738 18.1134 24.016 18.1824 24.1494 18.2665C24.2455 18.3177 24.3502 18.351 24.4582 18.3646C24.6066 18.3915 24.7585 18.3915 24.9068 18.3646C24.958 18.3588 25.0073 18.342 25.0515 18.3156C25.0637 18.242 25.0735 18.1685 25.0833 18.0925L24.4974 18.1464C24.3966 18.1558 24.2954 18.1338 24.2076 18.0833C24.1198 18.0328 24.0498 17.9564 24.0072 17.8645C23.8135 17.4576 23.4066 17.2492 22.8918 16.9869C20.2933 15.6607 17.8836 16.6878 17.6851 16.1338C17.5747 15.825 17.7341 15.5774 17.9498 15.244C18.1655 14.9106 18.418 14.5086 18.418 14.1163C18.4176 14.0139 18.4493 13.9138 18.5086 13.8303C18.568 13.7467 18.652 13.6839 18.749 13.6506L20.7346 12.7436C20.5213 12.7043 20.2443 12.6578 20.0359 11.589C20.0135 11.4854 20.0253 11.3773 20.0695 11.2809C20.1137 11.1846 20.1879 11.1052 20.2811 11.0546C20.2811 11.0546 20.8302 10.7359 20.8694 10.7163C21.0802 10.5741 21.3352 10.3878 21.6293 10.1623H21.6489C20.6473 10.3101 19.6682 10.5827 18.7343 10.9737C17.9755 11.2971 17.2484 11.6902 16.5623 12.1479C15.8897 12.5973 15.264 13.113 14.6944 13.6874C14.1214 14.2566 13.6065 14.8816 13.1574 15.5529C12.6984 16.2395 12.3045 16.9674 11.9807 17.7272L11.9611 17.7542C11.6362 18.5157 11.3898 19.3083 11.2257 20.1198C10.8955 21.8058 10.8955 23.5399 11.2257 25.226C11.2257 25.2701 11.2453 25.3143 11.2526 25.3584L13.5398 26.4517C13.621 26.4903 13.69 26.5505 13.7393 26.6258C13.7886 26.701 13.8163 26.7883 13.8192 26.8782C13.8242 27.4393 13.7123 27.9953 13.4907 28.5109C13.3332 28.8899 13.2348 29.2909 13.199 29.6998C13.2013 29.7459 13.1971 29.7921 13.1868 29.837C13.6296 30.4898 14.1336 31.0989 14.6919 31.656C15.2627 32.2283 15.8884 32.7431 16.5599 33.193C17.2459 33.6515 17.973 34.0454 18.7318 34.3697H18.7563C19.5168 34.6949 20.3087 34.9413 21.1194 35.1051C21.6369 35.2067 22.16 35.2771 22.6859 35.3159C22.8132 35.6617 22.9588 36.0005 23.1222 36.3308C22.3812 36.3032 21.6435 36.2171 20.916 36.0734C20.0389 35.8976 19.1821 35.6323 18.3592 35.2816H18.3322C17.5208 34.9281 16.7437 34.5005 16.0108 34.0044C15.2857 33.5185 14.6099 32.9626 13.9933 32.3448C13.3748 31.7288 12.8189 31.053 12.3337 30.3273C11.8409 29.591 11.4174 28.8106 11.0688 27.9961C10.7131 27.169 10.4444 26.3072 10.2672 25.4246C9.91094 23.6115 9.91094 21.7465 10.2672 19.9335C10.441 19.0535 10.7064 18.1941 11.059 17.3693C11.058 17.3604 11.058 17.3513 11.059 17.3424C11.408 16.528 11.8315 15.7476 12.3239 15.0111C12.8098 14.286 13.3657 13.6103 13.9835 12.9936C14.5987 12.3753 15.2737 11.8194 15.9985 11.334C16.736 10.8404 17.5182 10.4169 18.3347 10.0691C20.0217 9.35158 21.8381 8.98781 23.6713 9.00031C24.5956 8.99742 25.5178 9.08693 26.4242 9.26751C27.2996 9.44294 28.1546 9.70743 28.9761 10.0569L29.0031 10.0691C29.8146 10.4191 30.5925 10.8425 31.327 11.334C32.0513 11.82 32.7262 12.3758 33.342 12.9936C33.9614 13.6095 34.5181 14.2853 35.0041 15.0111C35.4986 15.745 35.9245 16.5229 36.2763 17.335C36.6326 18.1652 36.9012 19.0303 37.0779 19.9163C37.2216 20.6438 37.3077 21.3815 37.3353 22.1226C35.4075 21.174 33.2374 20.8321 31.1113 21.142V21.1518ZM31.4373 28.8246C31.4318 28.7332 31.445 28.6416 31.4762 28.5554C31.5074 28.4693 31.5559 28.3904 31.6187 28.3237C31.6815 28.257 31.7573 28.2038 31.8414 28.1675C31.9255 28.1311 32.0161 28.1124 32.1078 28.1124C32.1994 28.1124 32.29 28.1311 32.3741 28.1675C32.4583 28.2038 32.534 28.257 32.5968 28.3237C32.6596 28.3904 32.7081 28.4693 32.7393 28.5554C32.7705 28.6416 32.7837 28.7332 32.7782 28.8246V32.1585L35.0433 33.1538C35.192 33.2339 35.305 33.3671 35.3599 33.5268C35.4148 33.6865 35.4075 33.861 35.3395 34.0156C35.2715 34.1702 35.1477 34.2935 34.9929 34.3609C34.838 34.4283 34.6635 34.4349 34.504 34.3795L31.8737 33.2249C31.7454 33.1769 31.6348 33.0908 31.5568 32.9782C31.4788 32.8656 31.4371 32.7318 31.4373 32.5949V28.8246ZM37.7815 26.2213C37.8031 26.2803 37.8155 26.3423 37.8183 26.4051C37.8426 26.5499 37.8135 26.6985 37.7363 26.8235C37.6592 26.9484 37.5394 27.041 37.3991 27.0841L35.7812 27.5744C35.6311 27.614 35.4715 27.5944 35.3354 27.5197C35.1993 27.445 35.0971 27.3209 35.0499 27.173C35.0027 27.0252 35.0141 26.8648 35.0818 26.7251C35.1494 26.5854 35.2682 26.477 35.4134 26.4223C34.685 26.0467 33.8874 25.824 33.0697 25.7679C32.252 25.7118 31.4315 25.8234 30.6586 26.0959C29.8856 26.3684 29.1765 26.7961 28.5748 27.3526C27.9731 27.9092 27.4916 28.5828 27.1597 29.3322C26.8279 30.0816 26.6527 30.891 26.645 31.7105C26.6373 32.5301 26.7972 33.3426 27.1149 34.0981C27.4327 34.8536 27.9015 35.5362 28.4926 36.1039C29.0837 36.6717 29.7847 37.1126 30.5524 37.3996L30.6063 37.4167C30.7632 37.4731 30.9225 37.5221 31.0819 37.5663C31.1045 37.5718 31.1266 37.5791 31.148 37.5883C31.6405 37.7156 32.147 37.7799 32.6556 37.7795C32.8112 37.7789 32.9621 37.8326 33.0822 37.9315L33.1508 37.8653C33.2464 37.7911 33.3596 37.7429 33.4793 37.7256C33.8957 37.6647 34.3058 37.5671 34.705 37.4339C34.8707 37.396 35.0445 37.4224 35.1915 37.5077C35.3385 37.5929 35.4478 37.7307 35.4972 37.8933C35.5466 38.0559 35.5326 38.2312 35.4579 38.3839C35.3832 38.5365 35.2535 38.6552 35.0948 38.716C34.6289 38.8756 34.1486 38.9897 33.6607 39.0567C33.569 39.0683 33.476 39.0612 33.3871 39.0359C33.2982 39.0106 33.2153 38.9677 33.1435 38.9096C33.0807 38.9766 33.0047 39.0299 32.9203 39.0662C32.836 39.1025 32.745 39.1209 32.6532 39.1204C31.5343 39.122 30.4297 38.8683 29.4237 38.3786C28.4176 37.8888 27.5366 37.176 26.8476 36.2943C26.1587 35.4126 25.6801 34.3853 25.4481 33.2907C25.2162 32.196 25.2371 31.0629 25.5092 29.9776C25.7814 28.8923 26.2976 27.8834 27.0186 27.0277C27.7396 26.172 28.6463 25.4921 29.6697 25.0398C30.6932 24.5875 31.8063 24.3747 32.9244 24.4176C34.0425 24.4604 35.1361 24.7579 36.1219 25.2873L36.041 25.0716C35.9933 24.9233 36.0044 24.7624 36.0719 24.622C36.1394 24.4817 36.2582 24.3726 36.4038 24.3173C36.5493 24.2619 36.7106 24.2646 36.8543 24.3246C36.998 24.3847 37.1131 24.4976 37.176 24.6401L37.779 26.2188L37.7815 26.2213ZM38.8331 27.7852C38.7356 27.6354 38.5825 27.5304 38.4076 27.4934C38.2327 27.4564 38.0502 27.4904 37.9004 27.5879C37.7505 27.6854 37.6455 27.8385 37.6085 28.0134C37.5715 28.1883 37.6055 28.3708 37.703 28.5207C37.9213 28.8589 38.1061 29.2177 38.2546 29.5919C38.327 29.7465 38.4556 29.8677 38.6142 29.9309C38.7728 29.994 38.9495 29.9945 39.1084 29.932C39.2673 29.8696 39.3965 29.749 39.4697 29.5948C39.5428 29.4405 39.5545 29.2642 39.5024 29.1016C39.3248 28.6435 39.1005 28.2048 38.8331 27.7926V27.7852ZM36.72 36.2278C36.5954 36.3469 36.5214 36.5093 36.5132 36.6815C36.505 36.8536 36.5633 37.0223 36.6761 37.1527C36.7888 37.2831 36.9473 37.3651 37.1189 37.3819C37.2904 37.3986 37.4618 37.3488 37.5976 37.2427C37.9733 36.9046 38.3119 36.5274 38.6076 36.1175C38.7032 35.9734 38.7396 35.7981 38.7092 35.6279C38.6787 35.4577 38.5839 35.3058 38.4443 35.2037C38.3047 35.1017 38.1311 35.0575 37.9597 35.0802C37.7883 35.1029 37.6323 35.1908 37.5241 35.3257C37.2879 35.6533 37.0184 35.9556 36.72 36.2278ZM38.5095 33.1489C38.4793 33.3025 38.5037 33.4618 38.5785 33.5994C38.6533 33.7369 38.7738 33.844 38.9191 33.9021C39.0645 33.9603 39.2256 33.9658 39.3746 33.9178C39.5236 33.8698 39.6512 33.7712 39.7352 33.6391C39.7706 33.5798 39.7962 33.5153 39.8112 33.4479C39.9206 32.9697 39.9838 32.4821 40 31.9918C39.9964 31.8197 39.9269 31.6556 39.8058 31.5333C39.6848 31.4109 39.5213 31.3398 39.3493 31.3344C39.1773 31.3291 39.0098 31.39 38.8813 31.5045C38.7529 31.6191 38.6733 31.7786 38.6591 31.9501C38.6459 32.3547 38.5934 32.757 38.5022 33.1513L38.5095 33.1489Z" fill="url(#paint1_linear_5201_142259)"/>
<path d="M31.1113 21.1518L31.0255 20.6615L28.552 19.8281C28.6109 19.9237 28.6697 20.0168 28.731 20.1075C29.0425 20.528 29.2773 21.0002 29.4247 21.5024V21.5465C27.0422 22.3085 25.005 23.8868 23.6718 26.0034C22.3387 28.1199 21.7951 30.639 22.1368 33.117C22.0767 33.0713 22.0279 33.0124 21.9943 32.9448C21.9607 32.8772 21.9432 32.8027 21.9431 32.7272C21.941 32.4882 21.9147 32.25 21.8647 32.0163C21.8037 31.732 21.7218 31.4526 21.6195 31.1804C21.5038 30.8832 21.4056 30.5796 21.3254 30.2709C21.2604 30.026 21.225 29.7742 21.22 29.5208C21.2178 29.3505 21.2334 29.1805 21.2665 29.0134C21.2997 28.8511 21.3629 28.6965 21.4528 28.5574C21.4692 28.5217 21.48 28.4837 21.4847 28.4447C21.5039 28.314 21.5121 28.182 21.5092 28.05C21.5087 27.9135 21.4872 27.7779 21.4455 27.648C21.3882 27.4773 21.3135 27.313 21.2224 27.1577C21.0974 26.9395 21.0018 26.7606 20.938 26.6282C20.8549 26.4846 20.8031 26.325 20.7861 26.16C20.7861 25.351 20.5091 25.1794 20.1242 25.1794C19.8696 25.1867 19.6158 25.2104 19.3643 25.2505C19.0236 25.305 18.6796 25.3361 18.3347 25.3437C18.0435 25.33 17.7692 25.2034 17.5698 24.9907C17.3462 24.7666 17.1526 24.5144 16.9938 24.2405C16.8148 23.9439 16.6775 23.7037 16.5868 23.5247C16.4836 23.3517 16.4185 23.1587 16.3956 22.9585V22.5736C16.3834 21.2033 16.3711 19.9065 17.6924 18.9505C18.2415 18.1709 18.7343 17.6659 19.3299 17.3424C19.9256 17.0188 20.6365 16.8913 21.5656 16.8913C21.6956 16.8913 21.8203 16.943 21.9123 17.0349C22.0042 17.1269 22.0559 17.2516 22.0559 17.3816V18.0802L22.6491 18.3401V18.3008C22.6622 18.2372 22.6878 18.1768 22.7245 18.1231C22.7611 18.0695 22.808 18.0237 22.8626 17.9883C22.9171 17.9529 22.9781 17.9288 23.042 17.9172C23.1059 17.9056 23.1715 17.9069 23.235 17.9209C23.4012 17.9572 23.5649 18.0038 23.7253 18.0606C23.8738 18.1134 24.016 18.1824 24.1494 18.2665C24.2455 18.3177 24.3502 18.351 24.4582 18.3646C24.6066 18.3915 24.7585 18.3915 24.9068 18.3646C24.958 18.3588 25.0073 18.342 25.0515 18.3156C25.0637 18.242 25.0735 18.1685 25.0833 18.0925L24.4974 18.1464C24.3966 18.1558 24.2954 18.1338 24.2076 18.0833C24.1198 18.0328 24.0498 17.9564 24.0072 17.8645C23.8135 17.4576 23.4066 17.2492 22.8918 16.9869C20.2933 15.6607 17.8836 16.6878 17.6851 16.1338C17.5747 15.825 17.7341 15.5774 17.9498 15.244C18.1655 14.9106 18.418 14.5086 18.418 14.1163C18.4176 14.0139 18.4493 13.9138 18.5086 13.8303C18.568 13.7467 18.652 13.6839 18.749 13.6506L20.7346 12.7436C20.5213 12.7043 20.2443 12.6578 20.0359 11.589C20.0135 11.4854 20.0253 11.3773 20.0695 11.2809C20.1137 11.1846 20.1879 11.1052 20.2811 11.0546C20.2811 11.0546 20.8302 10.7359 20.8694 10.7163C21.0802 10.5741 21.3352 10.3878 21.6293 10.1623H21.6489C20.6473 10.3101 19.6682 10.5827 18.7343 10.9737C17.9755 11.2971 17.2484 11.6902 16.5623 12.1479C15.8897 12.5973 15.264 13.113 14.6944 13.6874C14.1214 14.2566 13.6065 14.8816 13.1574 15.5529C12.6984 16.2395 12.3045 16.9674 11.9807 17.7272L11.9611 17.7542C11.6362 18.5157 11.3898 19.3083 11.2257 20.1198C10.8955 21.8058 10.8955 23.5399 11.2257 25.226C11.2257 25.2701 11.2453 25.3143 11.2526 25.3584L13.5398 26.4517C13.621 26.4903 13.69 26.5505 13.7393 26.6258C13.7886 26.701 13.8163 26.7883 13.8192 26.8782C13.8242 27.4393 13.7123 27.9953 13.4907 28.5109C13.3332 28.8899 13.2348 29.2909 13.199 29.6998C13.2013 29.7459 13.1971 29.7921 13.1868 29.837C13.6296 30.4898 14.1336 31.0989 14.6919 31.656C15.2627 32.2283 15.8884 32.7431 16.5599 33.193C17.2459 33.6515 17.973 34.0454 18.7318 34.3697H18.7563C19.5168 34.6949 20.3087 34.9413 21.1194 35.1051C21.6369 35.2067 22.16 35.2771 22.6859 35.3159C22.8132 35.6617 22.9588 36.0005 23.1222 36.3308C22.3812 36.3032 21.6435 36.2171 20.916 36.0734C20.0389 35.8976 19.1821 35.6323 18.3592 35.2816H18.3322C17.5208 34.9281 16.7437 34.5005 16.0108 34.0044C15.2857 33.5185 14.6099 32.9626 13.9933 32.3448C13.3748 31.7288 12.8189 31.053 12.3337 30.3273C11.8409 29.591 11.4174 28.8106 11.0688 27.9961C10.7131 27.169 10.4444 26.3072 10.2672 25.4246C9.91094 23.6115 9.91094 21.7465 10.2672 19.9335C10.441 19.0535 10.7064 18.1941 11.059 17.3693C11.058 17.3604 11.058 17.3513 11.059 17.3424C11.408 16.528 11.8315 15.7476 12.3239 15.0111C12.8098 14.286 13.3657 13.6103 13.9835 12.9936C14.5987 12.3753 15.2737 11.8194 15.9985 11.334C16.736 10.8404 17.5182 10.4169 18.3347 10.0691C20.0217 9.35158 21.8381 8.98781 23.6713 9.00031C24.5956 8.99742 25.5178 9.08693 26.4242 9.26751C27.2996 9.44294 28.1546 9.70743 28.9761 10.0569L29.0031 10.0691C29.8146 10.4191 30.5925 10.8425 31.327 11.334C32.0513 11.82 32.7262 12.3758 33.342 12.9936C33.9614 13.6095 34.5181 14.2853 35.0041 15.0111C35.4986 15.745 35.9245 16.5229 36.2763 17.335C36.6326 18.1652 36.9012 19.0303 37.0779 19.9163C37.2216 20.6438 37.3077 21.3815 37.3353 22.1226C35.4075 21.174 33.2374 20.8321 31.1113 21.142V21.1518ZM31.4373 28.8246C31.4318 28.7332 31.445 28.6416 31.4762 28.5554C31.5074 28.4693 31.5559 28.3904 31.6187 28.3237C31.6815 28.257 31.7573 28.2038 31.8414 28.1675C31.9255 28.1311 32.0161 28.1124 32.1078 28.1124C32.1994 28.1124 32.29 28.1311 32.3741 28.1675C32.4583 28.2038 32.534 28.257 32.5968 28.3237C32.6596 28.3904 32.7081 28.4693 32.7393 28.5554C32.7705 28.6416 32.7837 28.7332 32.7782 28.8246V32.1585L35.0433 33.1538C35.192 33.2339 35.305 33.3671 35.3599 33.5268C35.4148 33.6865 35.4075 33.861 35.3395 34.0156C35.2715 34.1702 35.1477 34.2935 34.9929 34.3609C34.838 34.4283 34.6635 34.4349 34.504 34.3795L31.8737 33.2249C31.7454 33.1769 31.6348 33.0908 31.5568 32.9782C31.4788 32.8656 31.4371 32.7318 31.4373 32.5949V28.8246ZM37.7815 26.2213C37.8031 26.2803 37.8155 26.3423 37.8183 26.4051C37.8426 26.5499 37.8135 26.6985 37.7363 26.8235C37.6592 26.9484 37.5394 27.041 37.3991 27.0841L35.7812 27.5744C35.6311 27.614 35.4715 27.5944 35.3354 27.5197C35.1993 27.445 35.0971 27.3209 35.0499 27.173C35.0027 27.0252 35.0141 26.8648 35.0818 26.7251C35.1494 26.5854 35.2682 26.477 35.4134 26.4223C34.685 26.0467 33.8874 25.824 33.0697 25.7679C32.252 25.7118 31.4315 25.8234 30.6586 26.0959C29.8856 26.3684 29.1765 26.7961 28.5748 27.3526C27.9731 27.9092 27.4916 28.5828 27.1597 29.3322C26.8279 30.0816 26.6527 30.891 26.645 31.7105C26.6373 32.5301 26.7972 33.3426 27.1149 34.0981C27.4327 34.8536 27.9015 35.5362 28.4926 36.1039C29.0837 36.6717 29.7847 37.1126 30.5524 37.3996L30.6063 37.4167C30.7632 37.4731 30.9225 37.5221 31.0819 37.5663C31.1045 37.5718 31.1266 37.5791 31.148 37.5883C31.6405 37.7156 32.147 37.7799 32.6556 37.7795C32.8112 37.7789 32.9621 37.8326 33.0822 37.9315L33.1508 37.8653C33.2464 37.7911 33.3596 37.7429 33.4793 37.7256C33.8957 37.6647 34.3058 37.5671 34.705 37.4339C34.8707 37.396 35.0445 37.4224 35.1915 37.5077C35.3385 37.5929 35.4478 37.7307 35.4972 37.8933C35.5466 38.0559 35.5326 38.2312 35.4579 38.3839C35.3832 38.5365 35.2535 38.6552 35.0948 38.716C34.6289 38.8756 34.1486 38.9897 33.6607 39.0567C33.569 39.0683 33.476 39.0612 33.3871 39.0359C33.2982 39.0106 33.2153 38.9677 33.1435 38.9096C33.0807 38.9766 33.0047 39.0299 32.9203 39.0662C32.836 39.1025 32.745 39.1209 32.6532 39.1204C31.5343 39.122 30.4297 38.8683 29.4237 38.3786C28.4176 37.8888 27.5366 37.176 26.8476 36.2943C26.1587 35.4126 25.6801 34.3853 25.4481 33.2907C25.2162 32.196 25.2371 31.0629 25.5092 29.9776C25.7814 28.8923 26.2976 27.8834 27.0186 27.0277C27.7396 26.172 28.6463 25.4921 29.6697 25.0398C30.6932 24.5875 31.8063 24.3747 32.9244 24.4176C34.0425 24.4604 35.1361 24.7579 36.1219 25.2873L36.041 25.0716C35.9933 24.9233 36.0044 24.7624 36.0719 24.622C36.1394 24.4817 36.2582 24.3726 36.4038 24.3173C36.5493 24.2619 36.7106 24.2646 36.8543 24.3246C36.998 24.3847 37.1131 24.4976 37.176 24.6401L37.779 26.2188L37.7815 26.2213ZM38.8331 27.7852C38.7356 27.6354 38.5825 27.5304 38.4076 27.4934C38.2327 27.4564 38.0502 27.4904 37.9004 27.5879C37.7505 27.6854 37.6455 27.8385 37.6085 28.0134C37.5715 28.1883 37.6055 28.3708 37.703 28.5207C37.9213 28.8589 38.1061 29.2177 38.2546 29.5919C38.327 29.7465 38.4556 29.8677 38.6142 29.9309C38.7728 29.994 38.9495 29.9945 39.1084 29.932C39.2673 29.8696 39.3965 29.749 39.4697 29.5948C39.5428 29.4405 39.5545 29.2642 39.5024 29.1016C39.3248 28.6435 39.1005 28.2048 38.8331 27.7926V27.7852ZM36.72 36.2278C36.5954 36.3469 36.5214 36.5093 36.5132 36.6815C36.505 36.8536 36.5633 37.0223 36.6761 37.1527C36.7888 37.2831 36.9473 37.3651 37.1189 37.3819C37.2904 37.3986 37.4618 37.3488 37.5976 37.2427C37.9733 36.9046 38.3119 36.5274 38.6076 36.1175C38.7032 35.9734 38.7396 35.7981 38.7092 35.6279C38.6787 35.4577 38.5839 35.3058 38.4443 35.2037C38.3047 35.1017 38.1311 35.0575 37.9597 35.0802C37.7883 35.1029 37.6323 35.1908 37.5241 35.3257C37.2879 35.6533 37.0184 35.9556 36.72 36.2278ZM38.5095 33.1489C38.4793 33.3025 38.5037 33.4618 38.5785 33.5994C38.6533 33.7369 38.7738 33.844 38.9191 33.9021C39.0645 33.9603 39.2256 33.9658 39.3746 33.9178C39.5236 33.8698 39.6512 33.7712 39.7352 33.6391C39.7706 33.5798 39.7962 33.5153 39.8112 33.4479C39.9206 32.9697 39.9838 32.4821 40 31.9918C39.9964 31.8197 39.9269 31.6556 39.8058 31.5333C39.6848 31.4109 39.5213 31.3398 39.3493 31.3344C39.1773 31.3291 39.0098 31.39 38.8813 31.5045C38.7529 31.6191 38.6733 31.7786 38.6591 31.9501C38.6459 32.3547 38.5934 32.757 38.5022 33.1513L38.5095 33.1489Z" fill="url(#paint2_linear_5201_142259)"/>
<defs>
<linearGradient id="paint0_linear_5201_142259" x1="24" y1="0" x2="24" y2="48" gradientUnits="userSpaceOnUse">
<stop stop-color="#79859A"/>
<stop offset="1" stop-color="#79859A" stop-opacity="0"/>
</linearGradient>
<linearGradient id="paint1_linear_5201_142259" x1="25" y1="9" x2="25" y2="39.1204" gradientUnits="userSpaceOnUse">
<stop stop-color="white"/>
<stop offset="1" stop-color="white" stop-opacity="0.67"/>
</linearGradient>
<linearGradient id="paint2_linear_5201_142259" x1="25" y1="9" x2="25" y2="39.1204" gradientUnits="userSpaceOnUse">
<stop stop-color="white"/>
<stop offset="1" stop-color="white" stop-opacity="0.67"/>
</linearGradient>
</defs>
</svg>
