<svg width="48" height="48" viewBox="0 0 48 48" fill="none" xmlns="http://www.w3.org/2000/svg">
<rect x="0.00195312" width="48" height="48" rx="5" fill="url(#paint0_linear_5201_142007)"/>
<path fill-rule="evenodd" clip-rule="evenodd" d="M14.1225 19.7131L11.9418 15.9347C11.753 15.6067 11.8663 15.189 12.1943 15.0002C12.3029 14.9388 12.4185 14.9081 12.5365 14.9081V14.9058H16.9073V10.5161C16.9073 10.1362 17.2165 9.82699 17.5964 9.82699C17.7404 9.82699 17.8726 9.87183 17.9835 9.94499L21.717 12.1162L23.9095 8.34017C24.1007 8.01213 24.5208 7.90121 24.8464 8.09001C24.955 8.15373 25.04 8.24105 25.099 8.34489L27.2891 12.1162L31.0651 9.91903C31.3932 9.72787 31.8132 9.84115 32.002 10.1692C32.0658 10.2778 32.0941 10.3958 32.0941 10.5138L32.0964 14.9034H36.4861C36.8661 14.9034 37.1752 15.2126 37.1752 15.5925C37.1752 15.7365 37.1304 15.8687 37.0572 15.9796L34.886 19.7131L38.662 21.9056C38.9901 22.0968 39.101 22.5169 38.9122 22.8425C38.8485 22.9511 38.7612 23.0361 38.6573 23.0951L34.886 25.2852L37.0832 29.0612C37.2743 29.3892 37.1611 29.8093 36.833 29.9981C36.7245 30.0619 36.6064 30.0902 36.4884 30.0902L32.0988 30.0925V34.4633C32.0988 34.8433 31.7896 35.1524 31.4097 35.1524C31.261 35.1524 31.1241 35.1052 31.0108 35.025L27.2891 32.8774L25.0966 36.6558C24.9054 36.9838 24.4854 37.0947 24.1597 36.9059C24.0511 36.8422 23.9661 36.7549 23.9071 36.651L21.717 32.8774L17.9386 35.058C17.6106 35.2468 17.1929 35.1336 17.0041 34.8055C16.9427 34.6969 16.912 34.5813 16.912 34.4633H16.9097V30.0949H12.5365C12.1566 30.0949 11.8474 29.7857 11.8474 29.4058C11.8474 29.2571 11.8946 29.1202 11.9749 29.0069L14.1225 25.2852L10.3441 23.0951C10.016 22.9039 9.90511 22.4838 10.0939 22.1581C10.1576 22.0496 10.245 21.9646 10.3488 21.9056L14.1225 19.7131ZM20.5441 17.549C21.3914 17.549 22.0734 17.7897 22.5903 18.2735C23.1047 18.7573 23.362 19.3993 23.362 20.1993C23.362 21.0017 23.1047 21.6436 22.5903 22.1274C22.0734 22.6113 21.3914 22.852 20.5441 22.852C19.6969 22.852 19.0172 22.6089 18.5003 22.1274C17.9858 21.6436 17.7262 21.0017 17.7262 20.1993C17.7262 19.3993 17.9858 18.755 18.5003 18.2735C19.0172 17.7897 19.6969 17.549 20.5441 17.549ZM26.7274 17.9266H29.0213L22.3047 27.0623H20.0107L26.7274 17.9266ZM20.5441 19.5951C20.36 19.5951 20.2208 19.6494 20.124 19.7533C20.0273 19.8595 19.9777 20.0081 19.9777 20.2017C19.9777 20.3952 20.0273 20.5462 20.124 20.6524C20.2208 20.7563 20.36 20.8106 20.5441 20.8106C20.7282 20.8106 20.8698 20.7563 20.9666 20.6524C21.0633 20.5439 21.1105 20.3952 21.1105 20.2017C21.1105 20.0081 21.0633 19.8595 20.9666 19.7533C20.8722 19.6494 20.7306 19.5951 20.5441 19.5951ZM28.4573 22.144C29.3045 22.144 29.9842 22.387 30.5011 22.8685C31.0155 23.3523 31.2751 23.9942 31.2751 24.7966C31.2751 25.5967 31.0155 26.241 30.5011 26.7224C29.9842 27.2062 29.3045 27.4469 28.4573 27.4469C27.61 27.4469 26.928 27.2062 26.4111 26.7224C25.8967 26.2386 25.6394 25.5967 25.6394 24.7966C25.6394 23.9942 25.8967 23.3523 26.4111 22.8685C26.928 22.387 27.61 22.144 28.4573 22.144ZM28.4573 24.1901C28.2732 24.1901 28.1316 24.2444 28.0348 24.3482C27.9381 24.4568 27.8885 24.6031 27.8885 24.799C27.8885 24.9925 27.9381 25.1412 28.0348 25.2474C28.1316 25.3536 28.2732 25.4055 28.4573 25.4055C28.639 25.4055 28.7806 25.3512 28.8774 25.2474C28.9741 25.1412 29.0237 24.9925 29.0237 24.799C29.0237 24.6031 28.9741 24.4544 28.8774 24.3482C28.783 24.242 28.6414 24.1901 28.4573 24.1901Z" fill="white"/>
<defs>
<linearGradient id="paint0_linear_5201_142007" x1="24.002" y1="0" x2="24.002" y2="48" gradientUnits="userSpaceOnUse">
<stop stop-color="#0094FF"/>
<stop offset="1" stop-color="#0094FF" stop-opacity="0"/>
</linearGradient>
</defs>
</svg>
