<svg width="48" height="48" viewBox="0 0 48 48" fill="none" xmlns="http://www.w3.org/2000/svg">
<rect x="0.00195312" width="48" height="48" rx="5" fill="url(#paint0_linear_5201_142017)"/>
<path d="M31.1132 21.1518L31.0274 20.6615L28.554 19.8281C28.6128 19.9237 28.6717 20.0168 28.7329 20.1075C29.0444 20.528 29.2793 21.0002 29.4267 21.5024V21.5465C27.0442 22.3086 25.0069 23.8868 23.6738 26.0034C22.3406 28.1199 21.797 30.639 22.1387 33.117C22.0786 33.0713 22.0299 33.0124 21.9963 32.9448C21.9627 32.8772 21.9452 32.8027 21.9451 32.7272C21.943 32.4882 21.9167 32.25 21.8666 32.0163C21.8057 31.732 21.7237 31.4526 21.6215 31.1804C21.5058 30.8832 21.4076 30.5796 21.3273 30.2709C21.2623 30.026 21.2269 29.7742 21.2219 29.5208C21.2198 29.3505 21.2354 29.1805 21.2685 29.0134C21.3016 28.8511 21.3648 28.6965 21.4548 28.5574C21.4712 28.5217 21.4819 28.4837 21.4867 28.4447C21.5058 28.314 21.514 28.182 21.5112 28.05C21.5107 27.9135 21.4892 27.7779 21.4474 27.648C21.3902 27.4773 21.3154 27.313 21.2244 27.1577C21.0993 26.9395 21.0037 26.7606 20.94 26.6282C20.8569 26.4846 20.8051 26.325 20.788 26.16C20.788 25.351 20.511 25.1794 20.1261 25.1794C19.8716 25.1867 19.6177 25.2104 19.3662 25.2505C19.0255 25.305 18.6815 25.3361 18.3366 25.3437C18.0455 25.33 17.7711 25.2034 17.5718 24.9907C17.3482 24.7666 17.1545 24.5144 16.9957 24.2405C16.8168 23.9439 16.6795 23.7037 16.5888 23.5247C16.4856 23.3517 16.4204 23.1587 16.3976 22.9585V22.5736C16.3853 21.2033 16.3731 19.9065 17.6944 18.9505C18.2435 18.1709 18.7362 17.6659 19.3319 17.3424C19.9276 17.0188 20.6385 16.8913 21.5676 16.8913C21.6976 16.8913 21.8223 16.943 21.9142 17.0349C22.0062 17.1269 22.0578 17.2516 22.0578 17.3816V18.0802L22.6511 18.3401V18.3009C22.6642 18.2372 22.6898 18.1768 22.7264 18.1231C22.7631 18.0695 22.81 18.0237 22.8645 17.9883C22.919 17.9529 22.98 17.9288 23.044 17.9172C23.1079 17.9056 23.1735 17.9069 23.2369 17.9209C23.4031 17.9572 23.5669 18.0038 23.7272 18.0606C23.8757 18.1134 24.018 18.1824 24.1513 18.2665C24.2474 18.3177 24.3521 18.351 24.4602 18.3646C24.6085 18.3915 24.7605 18.3915 24.9088 18.3646C24.9599 18.3588 25.0093 18.342 25.0534 18.3156C25.0657 18.242 25.0755 18.1685 25.0853 18.0925L24.4994 18.1464C24.3986 18.1558 24.2973 18.1338 24.2095 18.0833C24.1217 18.0328 24.0517 17.9564 24.0091 17.8645C23.8155 17.4576 23.4085 17.2492 22.8937 16.9869C20.2953 15.6607 17.8856 16.6878 17.687 16.1338C17.5767 15.825 17.736 15.5774 17.9518 15.244C18.1675 14.9106 18.42 14.5086 18.42 14.1163C18.4195 14.0139 18.4512 13.9138 18.5106 13.8303C18.5699 13.7467 18.654 13.6839 18.7509 13.6506L20.7365 12.7436C20.5233 12.7043 20.2463 12.6578 20.0379 11.589C20.0155 11.4854 20.0273 11.3773 20.0715 11.2809C20.1157 11.1846 20.1899 11.1052 20.283 11.0546C20.283 11.0546 20.8321 10.7359 20.8714 10.7163C21.0822 10.5741 21.3371 10.3878 21.6313 10.1623H21.6509C20.6493 10.3101 19.6701 10.5827 18.7362 10.9737C17.9775 11.2971 17.2504 11.6902 16.5643 12.1479C15.8917 12.5973 15.2659 13.113 14.6963 13.6874C14.1234 14.2566 13.6085 14.8816 13.1593 15.5529C12.7004 16.2395 12.3064 16.9674 11.9827 17.7272L11.963 17.7542C11.6381 18.5157 11.3917 19.3083 11.2276 20.1198C10.8975 21.8058 10.8975 23.5399 11.2276 25.226C11.2276 25.2701 11.2472 25.3143 11.2546 25.3584L13.5417 26.4517C13.623 26.4903 13.692 26.5505 13.7413 26.6258C13.7906 26.701 13.8182 26.7883 13.8212 26.8782C13.8261 27.4393 13.7143 27.9953 13.4927 28.5109C13.3352 28.8899 13.2368 29.2909 13.201 29.6998C13.2032 29.7459 13.1991 29.7921 13.1887 29.8371C13.6315 30.4898 14.1355 31.0989 14.6939 31.656C15.2647 32.2283 15.8903 32.7431 16.5618 33.193C17.2479 33.6515 17.975 34.0454 18.7338 34.3697H18.7583C19.5188 34.6949 20.3106 34.9413 21.1214 35.1051C21.6388 35.2067 22.1619 35.2771 22.6878 35.3159C22.8151 35.6617 22.9608 36.0005 23.1242 36.3308C22.3831 36.3032 21.6454 36.2171 20.9179 36.0734C20.0408 35.8976 19.1841 35.6323 18.3611 35.2816H18.3342C17.5228 34.9281 16.7457 34.5005 16.0127 34.0044C15.2876 33.5185 14.6119 32.9626 13.9952 32.3448C13.3768 31.7288 12.8209 31.053 12.3357 30.3273C11.8428 29.591 11.4194 28.8106 11.0707 27.9961C10.715 27.169 10.4464 26.3072 10.2691 25.4246C9.91289 23.6115 9.91289 21.7465 10.2691 19.9335C10.4429 19.0535 10.7083 18.1941 11.0609 17.3693C11.0599 17.3604 11.0599 17.3513 11.0609 17.3424C11.41 16.528 11.8334 15.7476 12.3258 15.0111C12.8118 14.286 13.3676 13.6103 13.9854 12.9936C14.6007 12.3753 15.2757 11.8194 16.0005 11.334C16.738 10.8404 17.5201 10.4169 18.3366 10.0691C20.0237 9.35158 21.84 8.98781 23.6733 9.00031C24.5975 8.99742 25.5198 9.08693 26.4262 9.26751C27.3015 9.44294 28.1566 9.70743 28.9781 10.0569L29.005 10.0691C29.8166 10.4191 30.5945 10.8425 31.329 11.334C32.0533 11.82 32.7282 12.3758 33.344 12.9936C33.9633 13.6095 34.52 14.2853 35.006 15.0111C35.5006 15.745 35.9265 16.5229 36.2783 17.335C36.6345 18.1652 36.9032 19.0303 37.0799 19.9163C37.2235 20.6438 37.3096 21.3815 37.3373 22.1226C35.4094 21.174 33.2393 20.8321 31.1132 21.142V21.1518ZM31.4393 28.8246C31.4337 28.7332 31.447 28.6416 31.4782 28.5554C31.5093 28.4693 31.5578 28.3904 31.6206 28.3237C31.6834 28.257 31.7592 28.2038 31.8433 28.1675C31.9274 28.1311 32.0181 28.1124 32.1097 28.1124C32.2013 28.1124 32.292 28.1311 32.3761 28.1675C32.4602 28.2038 32.536 28.257 32.5988 28.3237C32.6616 28.3904 32.7101 28.4693 32.7413 28.5554C32.7725 28.6416 32.7857 28.7332 32.7802 28.8246V32.1585L35.0452 33.1538C35.1939 33.2339 35.307 33.3671 35.3618 33.5268C35.4167 33.6865 35.4095 33.861 35.3414 34.0156C35.2734 34.1702 35.1497 34.2935 34.9948 34.3609C34.84 34.4283 34.6654 34.435 34.5059 34.3795L31.8756 33.2249C31.7473 33.1769 31.6368 33.0908 31.5588 32.9782C31.4808 32.8656 31.4391 32.7318 31.4393 32.5949V28.8246ZM37.7834 26.2213C37.8051 26.2803 37.8175 26.3423 37.8202 26.4051C37.8445 26.5499 37.8154 26.6985 37.7383 26.8235C37.6612 26.9484 37.5413 27.041 37.401 27.0842L35.7831 27.5744C35.633 27.614 35.4734 27.5944 35.3374 27.5197C35.2013 27.445 35.0991 27.3209 35.0519 27.173C35.0047 27.0252 35.0161 26.8648 35.0837 26.7251C35.1514 26.5854 35.2701 26.477 35.4154 26.4223C34.6869 26.0467 33.8893 25.824 33.0717 25.7679C32.254 25.7118 31.4335 25.8234 30.6605 26.0959C29.8875 26.3684 29.1784 26.7961 28.5768 27.3526C27.9751 27.9092 27.4935 28.5828 27.1617 29.3322C26.8298 30.0816 26.6546 30.891 26.6469 31.7105C26.6392 32.5301 26.7992 33.3426 27.1169 34.0981C27.4346 34.8536 27.9034 35.5362 28.4946 36.1039C29.0857 36.6717 29.7866 37.1126 30.5543 37.3996L30.6082 37.4167C30.7651 37.4731 30.9245 37.5221 31.0838 37.5663C31.1064 37.5718 31.1286 37.5791 31.15 37.5883C31.6424 37.7156 32.149 37.7799 32.6576 37.7795C32.8132 37.7789 32.964 37.8326 33.0841 37.9315L33.1528 37.8653C33.2483 37.7911 33.3615 37.7429 33.4813 37.7256C33.8976 37.6647 34.3078 37.5671 34.707 37.4339C34.8726 37.396 35.0465 37.4224 35.1935 37.5077C35.3405 37.5929 35.4497 37.7307 35.4991 37.8933C35.5486 38.0559 35.5345 38.2312 35.4599 38.3839C35.3852 38.5365 35.2554 38.6552 35.0967 38.716C34.6308 38.8756 34.1506 38.9897 33.6627 39.0567C33.571 39.0683 33.4779 39.0612 33.389 39.0359C33.3002 39.0106 33.2173 38.9677 33.1454 38.9096C33.0826 38.9766 33.0067 39.0299 32.9223 39.0662C32.8379 39.1025 32.747 39.1209 32.6551 39.1204C31.5362 39.1221 30.4317 38.8683 29.4256 38.3786C28.4196 37.8888 27.5385 37.176 26.8496 36.2943C26.1607 35.4126 25.682 34.3853 25.4501 33.2907C25.2181 32.196 25.239 31.0629 25.5112 29.9776C25.7833 28.8923 26.2996 27.8834 27.0205 27.0277C27.7415 26.172 28.6483 25.4921 29.6717 25.0398C30.6951 24.5875 31.8083 24.3747 32.9264 24.4176C34.0445 24.4604 35.1381 24.7579 36.1239 25.2873L36.043 25.0716C35.9953 24.9233 36.0064 24.7624 36.0739 24.622C36.1414 24.4817 36.2601 24.3726 36.4057 24.3173C36.5513 24.2619 36.7126 24.2646 36.8562 24.3246C36.9999 24.3847 37.1151 24.4976 37.1779 24.6401L37.781 26.2188L37.7834 26.2213ZM38.8351 27.7852C38.7376 27.6354 38.5845 27.5304 38.4096 27.4934C38.2346 27.4564 38.0522 27.4904 37.9023 27.5879C37.7525 27.6854 37.6475 27.8385 37.6105 28.0134C37.5735 28.1883 37.6075 28.3708 37.705 28.5207C37.9233 28.8589 38.108 29.2177 38.2566 29.5919C38.329 29.7465 38.4576 29.8677 38.6162 29.9309C38.7748 29.9941 38.9515 29.9945 39.1104 29.932C39.2693 29.8696 39.3984 29.749 39.4716 29.5948C39.5448 29.4405 39.5565 29.2642 39.5043 29.1016C39.3267 28.6435 39.1025 28.2048 38.8351 27.7926V27.7852ZM36.722 36.2278C36.5974 36.3469 36.5233 36.5093 36.5152 36.6815C36.507 36.8536 36.5653 37.0223 36.678 37.1527C36.7907 37.2831 36.9493 37.3651 37.1208 37.3819C37.2924 37.3986 37.4638 37.3488 37.5996 37.2427C37.9753 36.9046 38.3139 36.5274 38.6096 36.1175C38.7052 35.9734 38.7415 35.7981 38.7111 35.6279C38.6807 35.4577 38.5858 35.3058 38.4462 35.2037C38.3066 35.1017 38.1331 35.0575 37.9617 35.0802C37.7903 35.1029 37.6342 35.1908 37.526 35.3257C37.2898 35.6533 37.0204 35.9556 36.722 36.2278ZM38.5115 33.1489C38.4813 33.3025 38.5057 33.4618 38.5805 33.5994C38.6553 33.7369 38.7757 33.844 38.9211 33.9021C39.0665 33.9603 39.2276 33.9658 39.3766 33.9178C39.5256 33.8698 39.6531 33.7712 39.7372 33.6391C39.7725 33.5798 39.7982 33.5153 39.8132 33.4479C39.9225 32.9697 39.9858 32.4821 40.0019 31.9918C39.9984 31.8197 39.9289 31.6556 39.8078 31.5333C39.6867 31.4109 39.5233 31.3398 39.3513 31.3344C39.1792 31.3291 39.0117 31.39 38.8833 31.5045C38.7548 31.6191 38.6753 31.7786 38.661 31.9501C38.6479 32.3547 38.5954 32.757 38.5041 33.1513L38.5115 33.1489Z" fill="white"/>
<defs>
<linearGradient id="paint0_linear_5201_142017" x1="24.002" y1="0" x2="24.002" y2="48" gradientUnits="userSpaceOnUse">
<stop stop-color="#0094FF"/>
<stop offset="1" stop-color="#0094FF" stop-opacity="0"/>
</linearGradient>
</defs>
</svg>
