<svg width="48" height="48" viewBox="0 0 48 48" fill="none" xmlns="http://www.w3.org/2000/svg">
<rect x="0.00195312" width="48" height="48" rx="5" fill="url(#paint0_linear_5201_142022)"/>
<path d="M27.411 36.9145C27.0501 37.0969 26.5963 36.9782 26.4014 36.6464L22.5225 30.0173L18.6745 34.3042C17.5143 35.5962 15.9822 35.917 15.8295 33.9592L14.0029 10.3498C13.9941 10.2267 14.0472 10.1015 14.1468 10.029C14.2619 9.97842 14.397 9.996 14.4988 10.0663L34.1859 23.441C35.8177 24.5506 34.7727 25.7063 33.0656 26.0579L27.4022 27.2224L31.2479 33.8713C31.4383 34.2031 31.3166 34.6535 30.9778 34.8711L27.411 36.9145Z" fill="white"/>
<defs>
<linearGradient id="paint0_linear_5201_142022" x1="24.002" y1="0" x2="24.002" y2="48" gradientUnits="userSpaceOnUse">
<stop stop-color="#0094FF"/>
<stop offset="1" stop-color="#0094FF" stop-opacity="0"/>
</linearGradient>
</defs>
</svg>
