<svg width="49" height="50" viewBox="0 0 49 50" fill="none" xmlns="http://www.w3.org/2000/svg">
<g clip-path="url(#clip0_6047_35372)">
<g clip-path="url(#clip1_6047_35372)">
<circle cx="24.5" cy="25.4688" r="24.5" fill="url(#paint0_linear_6047_35372)"/>
<path fill-rule="evenodd" clip-rule="evenodd" d="M29.7 17.6021C29.7 20.7133 27.1779 23.2354 24.0667 23.2354C20.9555 23.2354 18.4333 20.7133 18.4333 17.6021C18.4333 14.4909 20.9555 11.9688 24.0667 11.9688C27.1779 11.9688 29.7 14.4909 29.7 17.6021ZM22.7667 33.2021C22.7667 36.3133 20.2445 38.8354 17.1333 38.8354C14.0221 38.8354 11.5 36.3133 11.5 33.2021C11.5 30.0909 14.0221 27.5688 17.1333 27.5688C20.2445 27.5688 22.7667 30.0909 22.7667 33.2021ZM31.8667 37.9688C34.9779 37.9688 37.5 35.4466 37.5 32.3354C37.5 29.2242 34.9779 26.7021 31.8667 26.7021C28.7555 26.7021 26.2333 29.2242 26.2333 32.3354C26.2333 35.4466 28.7555 37.9688 31.8667 37.9688Z" fill="white"/>
</g>
<path fill-rule="evenodd" clip-rule="evenodd" d="M25.3764 38.9744C33.04 39.0442 39.3092 32.8881 39.3789 25.2246C39.4487 17.561 33.2927 11.2918 25.6291 11.222C17.9655 11.1523 11.6964 17.3083 11.6266 24.9719C11.5568 32.6355 17.7128 38.9046 25.3764 38.9744ZM38.1175 25.2131C38.054 32.18 32.3548 37.7763 25.3879 37.7129C18.421 37.6495 12.8246 31.9503 12.8881 24.9834C12.9515 18.0165 18.6507 12.4201 25.6176 12.4835C32.5845 12.5469 38.1809 18.2462 38.1175 25.2131ZM26.1922 18.1673C26.1954 17.819 25.9155 17.534 25.5672 17.5309C25.2189 17.5277 24.9339 17.8075 24.9307 18.1558L24.8561 26.3554C24.8529 26.7037 25.1327 26.9887 25.4811 26.9919L31.1577 27.0436C31.506 27.0467 31.791 26.7669 31.7942 26.4186C31.7973 26.0702 31.5175 25.7853 31.1692 25.7821L26.1233 25.7361L26.1922 18.1673Z" fill="white"/>
</g>
<defs>
<linearGradient id="paint0_linear_6047_35372" x1="24.5" y1="0.96875" x2="24.5" y2="49.9688" gradientUnits="userSpaceOnUse">
<stop stop-color="#0094FF"/>
<stop offset="1" stop-color="#D9D9D9" stop-opacity="0"/>
<stop offset="1" stop-color="#0094FF"/>
</linearGradient>
<clipPath id="clip0_6047_35372">
<rect y="0.96875" width="49" height="49" rx="3.26667" fill="white"/>
</clipPath>
<clipPath id="clip1_6047_35372">
<rect width="49" height="49" fill="white" transform="translate(0 0.96875)"/>
</clipPath>
</defs>
</svg>
