<svg width="13" height="26" viewBox="0 0 13 26" fill="none" xmlns="http://www.w3.org/2000/svg">
<path d="M7.41808 9.95108C8.02608 9.95108 8.55941 9.81774 9.01808 9.55108C9.47675 9.28441 9.83941 8.89508 10.1061 8.38308H12.6661C12.2927 9.52441 11.6367 10.4151 10.6981 11.0551C9.77008 11.6844 8.68208 11.9991 7.43408 11.9991C6.15408 11.9991 5.02874 11.6577 4.05808 10.9751C3.09808 10.2817 2.43141 9.35908 2.05808 8.20708H0.698078V6.87908H1.80208C1.78074 6.62308 1.77008 6.43108 1.77008 6.30308C1.77008 6.15374 1.78074 5.95108 1.80208 5.69508H0.698078V4.36708H2.07408C2.44741 3.21508 3.11408 2.29774 4.07408 1.61508C5.04475 0.932409 6.16475 0.591076 7.43408 0.591076C8.68208 0.591076 9.77008 0.911076 10.6981 1.55108C11.6367 2.19108 12.2927 3.07641 12.6661 4.20708H10.1061C9.83941 3.69508 9.47675 3.31108 9.01808 3.05508C8.55941 2.78841 8.02608 2.65508 7.41808 2.65508C6.76741 2.65508 6.18608 2.80441 5.67408 3.10308C5.17274 3.40174 4.78341 3.82308 4.50608 4.36708H7.57808V5.69508H4.10608C4.08475 5.95108 4.07408 6.15374 4.07408 6.30308C4.07408 6.43108 4.08475 6.62308 4.10608 6.87908H7.57808V8.20708H4.49008C4.76741 8.75108 5.16208 9.17774 5.67408 9.48708C6.18608 9.79641 6.76741 9.95108 7.41808 9.95108ZM8.25008 23.2471V25.1351H1.46608V23.2471H8.25008Z" fill="white"/>
</svg>
