<svg width="18" height="19" viewBox="0 0 18 19" fill="none" xmlns="http://www.w3.org/2000/svg">
<path d="M17.3646 8.73596L9.34682 0.641367C9.15529 0.447995 8.84458 0.447995 8.65291 0.641367L0.634867 8.73596C0.494685 8.87774 0.452667 9.09083 0.528471 9.27602C0.604521 9.46108 0.783404 9.58176 0.981945 9.58176H1.93374V16.7433C1.93374 17.4121 2.47075 17.9541 3.13321 17.9541H6.92637V13.9216C6.92637 13.6481 7.14604 13.4262 7.41719 13.4262H10.5822C10.8531 13.4262 11.0728 13.648 11.0728 13.9216V17.9541H14.8662C15.5284 17.9541 16.0654 17.412 16.0654 16.7433V9.58176H17.0174C17.216 9.58176 17.3947 9.46108 17.4708 9.27602C17.5466 9.09095 17.505 8.87774 17.3646 8.73596Z" stroke="#969696" stroke-width="1.3" stroke-miterlimit="10"/>
</svg>
