<svg width="21" height="21" viewBox="0 0 21 21" fill="none" xmlns="http://www.w3.org/2000/svg">
<g clip-path="url(#clip0_5201_141380)">
<path d="M18.6604 13.6755L17.7917 12.3899C17.5485 12.0425 17.4443 11.6603 17.4443 11.2433V6.93486C17.4443 3.25181 14.4561 0.263672 10.7731 0.263672C10.6688 0.263672 10.5646 0.263672 10.4256 0.263672C6.81206 0.472146 3.99765 3.49503 4.06714 7.10859V11.2433C4.06714 11.6603 3.9629 12.0425 3.71968 12.3899L2.85104 13.6755C2.12138 14.7179 2.39934 16.1772 3.44172 16.9069C3.82392 17.1501 4.27562 17.2891 4.76206 17.2891H16.7146C18.0002 17.2891 19.0426 16.2467 19.0426 14.9959C19.0426 14.5094 18.9036 14.0577 18.6604 13.6755Z" fill="#5B6476"/>
<path d="M10.7351 20.7626C8.33761 20.7626 6.39185 18.8169 6.39185 16.4194C6.39185 15.933 6.77405 15.5508 7.26049 15.5508C7.74693 15.5508 8.12913 15.933 8.12913 16.4194C8.12913 17.844 9.31049 19.0254 10.7351 19.0254C12.1596 19.0254 13.341 17.844 13.341 16.4194C13.341 15.933 13.7232 15.5508 14.2096 15.5508C14.6961 15.5508 15.0783 15.933 15.0783 16.4194C15.0783 18.8169 13.1325 20.7626 10.7351 20.7626Z" fill="#5B6476"/>
</g>
<defs>
<clipPath id="clip0_5201_141380">
<rect width="20.5" height="20.5" fill="white" transform="translate(0.5 0.263672)"/>
</clipPath>
</defs>
</svg>
