    <svg
      width="24"
      height="24"
      viewBox="0 0 24 24"
      fill="none"
      xmlns="http://www.w3.org/2000/svg"
    >
      <mask
        id="mask0_5201_141574"
        style="mask-type:luminance"
        maskUnits="userSpaceOnUse"
        x="0"
        y="0"
        width="24"
        height="24"
      >
        <path
          d="M23.6339 0.466797H0.58252V23.5182H23.6339V0.466797Z"
          fill="white"
        />
      </mask>
      <g mask="url(#mask0_5201_141574)">
        <path
          d="M1.30298 15.9991C2.12186 18.2057 3.59649 20.1088 5.52874 21.4528C7.46098 22.7967 9.75827 23.5171 12.1119 23.5171C14.4656 23.5171 16.7629 22.7967 18.6952 21.4528C20.6274 20.1088 22.102 18.2057 22.9209 15.9991L12.1084 14.9961L1.30298 15.9991Z"
          fill="#FFDA44"
        />
        <path
          d="M12.1084 0.466797C9.75561 0.46696 7.4592 1.1871 5.52764 2.53048C3.59607 3.87387 2.12185 5.77617 1.30298 7.98186L12.1084 8.98482L22.9186 7.98186C22.0985 5.77598 20.6234 3.87372 18.6911 2.5304C16.7588 1.18709 14.4618 0.467001 12.1084 0.466797Z"
          fill="black"
        />
        <path
          d="M1.30104 7.98438C0.345293 10.5719 0.345293 13.4157 1.30104 16.0033H22.9166C23.8755 13.4163 23.8755 10.5714 22.9166 7.98438H1.30104Z"
          fill="#D80027"
        />
      </g>
    </svg>