    <svg
      width="24"
      height="24"
      viewBox="0 0 24 24"
      fill="none"
      xmlns="http://www.w3.org/2000/svg"
    >
      <g clip-path="url(#clip0_5201_141318)">
        <path
          d="M11.8057 23.3886C14.0673 23.3886 16.5008 22.8419 18.3812 21.5854C20.2616 20.329 21.7272 18.5431 22.5927 16.4537C23.4581 14.3643 23.6846 12.0652 23.2434 9.84712C22.8272 7.28774 21.71 5.37489 20.1767 3.84156C18.5156 2.05267 16.2546 1.18024 14.0365 0.73903C11.8184 0.297822 9.61611 0.548274 7.52671 1.41373C5.4373 2.27919 3.64262 4.0483 2.36484 5.83718C1.2656 7.67489 0.626709 9.75778 0.626709 12.0193C0.626709 15.052 1.94878 18.0124 4.09319 20.1568C6.2376 22.3012 8.77309 23.3886 11.8057 23.3886Z"
          fill="#F0F0F0"
        />
        <path
          d="M11.5427 11.9532H23.5531C23.5531 10.9395 23.4201 9.93021 23.1574 8.95117H11.5427V11.9532Z"
          fill="#D80027"
        />
        <path
          d="M11.6156 6.01566H21.8337C21.1342 4.86827 20.3313 3.85226 19.2812 3.01367H11.6084L11.6156 6.01566Z"
          fill="#D80027"
        />
        <path
          d="M12.0901 23.4627C14.6911 23.464 17.2152 22.5803 19.2474 20.957H4.91846C6.95475 22.5831 9.48428 23.4669 12.0901 23.4627Z"
          fill="#D80027"
        />
        <path
          d="M2.44124 18.1334H21.6804C22.2599 17.3608 22.7776 16.1308 23.0606 15.043L1.05176 15.043C1.33537 16.1314 1.863 17.2063 2.44124 18.1334Z"
          fill="#D80027"
        />
        <path
          d="M5.92237 2.30425H6.96578L5.99622 3.007L6.36546 4.1457L5.39114 3.44295L4.43825 4.1457L4.74794 3.16185C3.89414 3.87501 3.14794 4.70787 2.53248 5.63458H2.86599L2.24661 6.08244C2.15133 6.24204 2.05842 6.40642 1.97028 6.57079L2.26567 7.47841L1.71538 7.0782C1.57959 7.36883 1.45334 7.66422 1.34137 7.96676L1.66535 8.96491H2.85646L1.8869 9.67957L2.25853 10.8183L1.28896 10.1036L0.714851 10.5229C0.656482 10.9971 0.627047 11.4744 0.626709 11.9522H12.0613V0.517592C9.88632 0.51424 7.7559 1.13427 5.92237 2.30425ZM6.36546 10.8087L5.39828 10.0941L4.43825 10.8087L4.80749 9.67004L3.83793 8.95538H5.02904L5.39114 7.82621L5.76038 8.96491H6.95149L5.98192 9.67957L6.36546 10.8087ZM5.99622 6.33733L6.36546 7.47841L5.39828 6.76375L4.42872 7.47841L4.79796 6.33733L3.8284 5.63458H5.01951L5.39114 4.49588L5.76038 5.63458H6.95149L5.99622 6.33733ZM10.4676 10.8087L9.49807 10.0941L8.52851 10.8087L8.90014 9.67004L7.93057 8.95538H9.12168L9.49092 7.81669L9.86255 8.95538H11.0537L10.0841 9.67004L10.4676 10.8087ZM10.0984 6.33733L10.4676 7.47841L9.49807 6.76375L8.52851 7.47841L8.90014 6.33733L7.93057 5.63458H9.12168L9.49092 4.49588L9.86255 5.63458H11.0537L10.0984 6.33733ZM10.0984 3.00224L10.4676 4.14093L9.49807 3.43818L8.52851 4.14093L8.90014 3.00224L7.93057 2.30425H9.12168L9.49092 1.16317L9.8697 2.30425H11.0608L10.0984 3.00224Z"
          fill="#0052B4"
        />
      </g>
      <defs>
        <clipPath id="clip0_5201_141318">
          <rect
            width="23"
            height="23"
            fill="white"
            transform="translate(0.5 0.513672)"
          />
        </clipPath>
      </defs>
    </svg>